<svg width="36" height="36" viewBox="0 0 36 36" fill="none" xmlns="http://www.w3.org/2000/svg">
<path d="M25.3931 17.7401C25.3805 15.6089 26.3531 14.0027 28.317 12.8184C27.2186 11.256 25.5568 10.3966 23.3662 10.231C21.2921 10.0685 19.0229 11.431 18.192 11.431C17.3139 11.431 15.3059 10.2873 13.7259 10.2873C10.4652 10.3373 7 12.8684 7 18.0182C7 19.54 7.28011 21.1118 7.84034 22.7305C8.58941 24.8617 11.2898 30.0834 14.1067 29.999C15.5797 29.9646 16.6215 28.9615 18.5382 28.9615C20.3983 28.9615 21.3614 29.999 23.0043 29.999C25.8464 29.9584 28.2887 25.2117 29 23.0743C25.1886 21.29 25.3931 17.8495 25.3931 17.7401ZM22.0853 8.20921C23.681 6.32803 23.5362 4.6156 23.489 4C22.079 4.08125 20.4486 4.95309 19.5202 6.02492C18.4973 7.17488 17.8961 8.5967 18.0252 10.1998C19.5485 10.3154 20.9396 9.53728 22.0853 8.20921Z" fill="white"/>
</svg>
