<svg width="33" height="33" viewBox="0 0 33 33" fill="none" xmlns="http://www.w3.org/2000/svg">
<path d="M27.7764 14.2477H26.85V14.2H16.5V18.8H22.9992C22.0511 21.4778 19.5032 23.4 16.5 23.4C12.6895 23.4 9.60001 20.3105 9.60001 16.5C9.60001 12.6895 12.6895 9.60001 16.5 9.60001C18.2589 9.60001 19.8592 10.2636 21.0776 11.3474L24.3304 8.09465C22.2765 6.18048 19.5291 5 16.5 5C10.1491 5 5 10.1491 5 16.5C5 22.8509 10.1491 28 16.5 28C22.8509 28 28 22.8509 28 16.5C28 15.7289 27.9207 14.9763 27.7764 14.2477Z" fill="#FFC107"/>
<path d="M6.3259 11.1473L10.1042 13.9183C11.1266 11.3871 13.6025 9.6 16.5 9.6C18.2589 9.6 19.8591 10.2636 21.0775 11.3474L24.3303 8.09465C22.2764 6.18048 19.5291 5 16.5 5C12.0828 5 8.25215 7.49378 6.3259 11.1473Z" fill="#FF3D00"/>
<path d="M16.5 28.0006C19.4704 28.0006 22.1695 26.8638 24.2102 25.0152L20.6509 22.0034C19.4575 22.9109 17.9993 23.4018 16.5 23.4006C13.5088 23.4006 10.969 21.4933 10.0122 18.8317L6.26208 21.721C8.16534 25.4453 12.0305 28.0006 16.5 28.0006Z" fill="#4CAF50"/>
<path d="M27.7763 14.2479H26.85V14.2002H16.5V18.8002H22.9992C22.5457 20.0746 21.7287 21.1883 20.6492 22.0035L20.6509 22.0024L24.2102 25.0142C23.9583 25.2431 28 22.2502 28 16.5002C28 15.7291 27.9207 14.9764 27.7763 14.2479Z" fill="#1976D2"/>
</svg>
