<svg width="445" height="263" viewBox="0 0 445 263" fill="none" xmlns="http://www.w3.org/2000/svg">
<path d="M400 234.713C394.642 240.286 335.792 246.449 295.222 248.391C249.738 250.567 193.468 250.767 181.626 248.391C164.139 244.883 60.4372 263.098 36.0001 234.713C-0.970701 191.77 9.03057 150.668 36.0002 110.213C62.3397 70.704 98.5 61.7135 147.5 61.7135C223.5 61.7135 305.732 -20.4814 370 11.7135C448.565 51.0703 440.607 192.489 400 234.713Z" fill="#C11153"/>
<path d="M129.928 65.3007C129.953 64.0383 131.01 63.0222 132.306 63.0222H210.913C212.227 63.0222 213.622 64.0695 213.622 65.35V244.139C213.622 245.094 213.067 246.011 212.372 246.685C211.678 247.359 210.654 247.737 209.674 247.735L130.206 247.523C129.217 247.521 128.25 247.131 127.559 246.443C126.867 245.754 126.477 244.821 126.496 243.857L129.928 65.3017V65.3007Z" fill="#B10C4A"/>
<g opacity="0.52">
<g style="mix-blend-mode:overlay" opacity="0.52">
<path d="M175.072 75.6916L200.786 75.6053L200.777 72.47L175.091 72.5486L175.072 75.6916Z" fill="#330000"/>
</g>
<g style="mix-blend-mode:overlay" opacity="0.52">
<path d="M175.001 87.2415L200.821 87.1259L200.812 83.965L175.02 84.0721L175.001 87.2415Z" fill="#330000"/>
</g>
<g style="mix-blend-mode:overlay" opacity="0.52">
<path d="M174.93 98.8853L200.857 98.7422L200.847 95.5547L174.949 95.6902L174.93 98.8853Z" fill="#330000"/>
</g>
<g style="mix-blend-mode:overlay" opacity="0.52">
<path d="M174.859 110.627L200.893 110.455L200.882 107.241L174.878 107.405L174.859 110.627Z" fill="#330000"/>
</g>
<g style="mix-blend-mode:overlay" opacity="0.52">
<path d="M174.786 122.467L200.929 122.265L200.918 119.024L174.806 119.218L174.786 122.467Z" fill="#330000"/>
</g>
<g style="mix-blend-mode:overlay" opacity="0.52">
<path d="M174.639 146.443L201.001 146.181L200.992 142.885L174.66 143.139L174.639 146.443Z" fill="#330000"/>
</g>
<g style="mix-blend-mode:overlay" opacity="0.52">
<path d="M174.416 183.173L201.114 182.816L201.103 179.437L174.436 179.785L174.416 183.173Z" fill="#330000"/>
</g>
<g style="mix-blend-mode:overlay" opacity="0.52">
<path d="M174.713 134.404L200.965 134.172L200.955 130.905L174.733 131.128L174.713 134.404Z" fill="#330000"/>
</g>
<g style="mix-blend-mode:overlay" opacity="0.52">
<path d="M174.566 158.582L201.038 158.29L201.029 154.967L174.586 155.252L174.566 158.582Z" fill="#330000"/>
</g>
<g style="mix-blend-mode:overlay" opacity="0.52">
<path d="M174.491 170.826L201.076 170.501L201.066 167.15L174.511 167.466L174.491 170.826Z" fill="#330000"/>
</g>
<g style="mix-blend-mode:overlay" opacity="0.52">
<path d="M174.339 195.625L201.152 195.236L201.141 191.828L174.361 192.209L174.339 195.625Z" fill="#330000"/>
</g>
<g style="mix-blend-mode:overlay" opacity="0.52">
<path d="M174.263 208.185L201.19 207.762L201.179 204.325L174.284 204.739L174.263 208.185Z" fill="#330000"/>
</g>
<g style="mix-blend-mode:overlay" opacity="0.52">
<path d="M174.185 220.853L201.228 220.397L201.218 216.929L174.207 217.377L174.185 220.853Z" fill="#330000"/>
</g>
<g style="mix-blend-mode:overlay" opacity="0.52">
<path d="M174.108 233.63L201.268 233.14L201.257 229.643L174.129 230.124L174.108 233.63Z" fill="#330000"/>
</g>
<g style="mix-blend-mode:overlay" opacity="0.52">
<path d="M141.358 75.8053L167.234 75.7181L167.262 72.5732L141.416 72.6529L141.358 75.8053Z" fill="#330000"/>
</g>
<g style="mix-blend-mode:overlay" opacity="0.52">
<path d="M141.148 87.3912L167.131 87.2756L167.159 84.1042L141.206 84.2123L141.148 87.3912Z" fill="#330000"/>
</g>
<g style="mix-blend-mode:overlay" opacity="0.52">
<path d="M140.937 99.0739L167.028 98.9298L167.056 95.7319L140.995 95.8684L140.937 99.0739Z" fill="#330000"/>
</g>
<g style="mix-blend-mode:overlay" opacity="0.52">
<path d="M140.723 110.853L166.923 110.68L166.951 107.455L140.782 107.621L140.723 110.853Z" fill="#330000"/>
</g>
<g style="mix-blend-mode:overlay" opacity="0.52">
<path d="M140.508 122.731L166.817 122.527L166.846 119.276L140.567 119.471L140.508 122.731Z" fill="#330000"/>
</g>
<g style="mix-blend-mode:overlay" opacity="0.52">
<path d="M140.072 146.787L166.604 146.523L166.634 143.217L140.133 143.473L140.072 146.787Z" fill="#330000"/>
</g>
<g style="mix-blend-mode:overlay" opacity="0.52">
<path d="M139.405 183.641L166.277 183.281L166.307 179.891L139.466 180.241L139.405 183.641Z" fill="#330000"/>
</g>
<g style="mix-blend-mode:overlay" opacity="0.52">
<path d="M140.292 134.708L166.711 134.475L166.741 131.197L140.351 131.421L140.292 134.708Z" fill="#330000"/>
</g>
<g style="mix-blend-mode:overlay" opacity="0.52">
<path d="M139.851 158.967L166.496 158.673L166.525 155.338L139.912 155.625L139.851 158.967Z" fill="#330000"/>
</g>
<g style="mix-blend-mode:overlay" opacity="0.52">
<path d="M139.629 171.252L166.387 170.925L166.417 167.563L139.69 167.881L139.629 171.252Z" fill="#330000"/>
</g>
<g style="mix-blend-mode:overlay" opacity="0.52">
<path d="M139.178 196.136L166.166 195.744L166.196 192.324L139.24 192.707L139.178 196.136Z" fill="#330000"/>
</g>
<g style="mix-blend-mode:overlay" opacity="0.52">
<path d="M138.95 208.739L166.054 208.314L166.085 204.865L139.013 205.281L138.95 208.739Z" fill="#330000"/>
</g>
<g style="mix-blend-mode:overlay" opacity="0.52">
<path d="M138.72 221.451L165.941 220.992L165.973 217.513L138.783 217.963L138.72 221.451Z" fill="#330000"/>
</g>
<g style="mix-blend-mode:overlay" opacity="0.52">
<path d="M138.488 234.274L165.827 233.78L165.859 230.271L138.551 230.755L138.488 234.274Z" fill="#330000"/>
</g>
</g>
<path d="M265.54 117.775C265.574 116.314 267.07 115.113 268.901 115.113H338.134C339.99 115.113 341.813 116.377 341.813 117.857V250.162C341.813 250.874 341.298 251.557 340.666 252.059C340.035 252.562 339.098 252.843 338.204 252.841L265.816 252.684C264.915 252.682 264.034 252.392 263.404 251.878C262.774 251.365 262.419 250.656 262.436 249.937L265.539 117.774L265.54 117.775Z" fill="#B60044"/>
<g opacity="0.5">
<g opacity="0.5">
<path opacity="0.5" d="M316.527 130.703L336.25 130.682L336.407 122.62H316.665L316.527 130.703Z" fill="#4B041C"/>
<path opacity="0.5" d="M294.42 130.699L314.123 130.678L314.258 122.62H294.536L294.42 130.699Z" fill="#4B041C"/>
<path opacity="0.5" d="M272.334 130.695L292.018 130.675L292.131 122.62H272.429L272.334 130.695Z" fill="#4B041C"/>
</g>
<g opacity="0.5">
<path opacity="0.5" d="M316.28 145.174L335.969 145.183L336.125 137.174L316.417 137.168L316.28 145.174Z" fill="#4B041C"/>
<path opacity="0.5" d="M294.212 145.163L313.881 145.172L314.015 137.168L294.327 137.161L294.212 145.163Z" fill="#4B041C"/>
<path opacity="0.5" d="M272.165 145.151L291.815 145.162L291.927 137.16L272.259 137.154L272.165 145.151Z" fill="#4B041C"/>
</g>
<g opacity="0.5">
<path opacity="0.5" d="M316.035 159.545L335.69 159.562L335.845 151.58L316.172 151.567L316.035 159.545Z" fill="#4B041C"/>
<path opacity="0.5" d="M294.004 159.527L313.639 159.543L313.774 151.566L294.119 151.553L294.004 159.527Z" fill="#4B041C"/>
<path opacity="0.5" d="M271.996 159.508L291.612 159.525L291.724 151.551L272.09 151.539L271.996 159.508Z" fill="#4B041C"/>
</g>
<g opacity="0.5">
<path opacity="0.5" d="M315.79 173.866L335.41 173.889L335.565 165.936L315.926 165.916L315.79 173.866Z" fill="#4B041C"/>
<path opacity="0.5" d="M293.798 173.84L313.399 173.863L313.533 165.914L293.912 165.894L293.798 173.84Z" fill="#4B041C"/>
<path opacity="0.5" d="M271.828 173.815L291.409 173.837L291.521 165.892L271.922 165.873L271.828 173.815Z" fill="#4B041C"/>
</g>
<g opacity="0.5">
<path opacity="0.5" d="M315.546 188.138L335.132 188.167L335.286 180.241L315.681 180.215L315.546 188.138Z" fill="#4B041C"/>
<path opacity="0.5" d="M293.592 188.106L313.159 188.134L313.292 180.212L293.707 180.187L293.592 188.106Z" fill="#4B041C"/>
<path opacity="0.5" d="M271.66 188.073L291.207 188.102L291.319 180.183L271.753 180.157L271.66 188.073Z" fill="#4B041C"/>
</g>
<g opacity="0.5">
<path opacity="0.5" d="M315.304 202.361L334.856 202.396L335.01 194.497L315.438 194.465L315.304 202.361Z" fill="#4B041C"/>
<path opacity="0.5" d="M293.387 202.321L312.92 202.356L313.053 194.462L293.501 194.429L293.387 202.321Z" fill="#4B041C"/>
<path opacity="0.5" d="M271.493 202.281L291.006 202.316L291.118 194.426L271.585 194.393L271.493 202.281Z" fill="#4B041C"/>
</g>
<g opacity="0.5">
<path opacity="0.5" d="M315.061 216.534L334.58 216.576L334.733 208.704L315.195 208.666L315.061 216.534Z" fill="#4B041C"/>
<path opacity="0.5" d="M293.182 216.488L312.682 216.529L312.814 208.662L293.296 208.623L293.182 216.488Z" fill="#4B041C"/>
<path opacity="0.5" d="M271.326 216.441L290.806 216.482L290.917 208.618L271.418 208.58L271.326 216.441Z" fill="#4B041C"/>
</g>
<g opacity="0.5">
<path opacity="0.5" d="M314.819 230.659L334.304 230.707L334.457 222.863L314.953 222.818L314.819 230.659Z" fill="#4B041C"/>
<path opacity="0.5" d="M292.979 230.605L312.445 230.654L312.576 222.812L293.092 222.768L292.979 230.605Z" fill="#4B041C"/>
<path opacity="0.5" d="M271.16 230.552L290.606 230.599L290.717 222.763L271.252 222.719L271.16 230.552Z" fill="#4B041C"/>
</g>
<g opacity="0.5">
<path opacity="0.5" d="M314.579 244.735L334.03 244.789L334.182 236.972L314.712 236.921L314.579 244.735Z" fill="#4B041C"/>
<path opacity="0.5" d="M292.776 244.674L312.208 244.728L312.34 236.915L292.889 236.865L292.776 244.674Z" fill="#4B041C"/>
<path opacity="0.5" d="M270.994 244.615L290.407 244.669L290.518 236.858L271.087 236.808L270.994 244.615Z" fill="#4B041C"/>
</g>
</g>
<path d="M324.826 39H171.174C169.973 39 169 39.9872 169 41.205V251.795C169 253.013 169.973 254 171.174 254H324.826C326.027 254 327 253.013 327 251.795V41.205C327 39.9872 326.027 39 324.826 39Z" fill="#D92A6C"/>
<path d="M300.192 71.1487H195.594C191.629 71.1487 188.415 74.3741 188.415 78.3529V216.768C188.415 220.747 191.629 223.972 195.594 223.972H300.192C304.156 223.972 307.371 220.747 307.371 216.768V78.3529C307.371 74.3741 304.156 71.1487 300.192 71.1487Z" fill="#E3427E"/>
<path d="M296.234 83.7203H199.646C198.457 83.7203 197.493 84.6879 197.493 85.8813V211.18C197.493 212.373 198.457 213.341 199.646 213.341H296.234C297.423 213.341 298.387 212.373 298.387 211.18V85.8813C298.387 84.6879 297.423 83.7203 296.234 83.7203Z" fill="#C82C66"/>
<path d="M251.117 58.8482C252.964 56.9949 252.964 53.9902 251.117 52.1369C249.27 50.2836 246.276 50.2836 244.429 52.1369C242.582 53.9902 242.582 56.9949 244.429 58.8482C246.276 60.7015 249.27 60.7015 251.117 58.8482Z" fill="#B60044"/>
<path d="M278.326 132.105L217.484 133.12C212.853 133.198 209.086 136.811 209.086 141.19V179.641C209.086 184.021 212.853 187.419 217.484 187.233L278.326 184.781C282.696 184.604 286.227 181.031 286.227 176.798V139.638C286.227 135.405 282.696 132.033 278.326 132.106V132.105Z" fill="#D56F95"/>
<path d="M281.405 125.151C279.563 125.178 278.066 123.751 278.066 121.963V113.548C278.066 105.106 270.951 98.2577 262.141 98.2833L242.321 98.3411C233.285 98.3677 225.88 105.417 225.88 114.057V122.668C225.88 124.499 224.311 126.005 222.373 126.034C220.431 126.063 218.855 124.599 218.855 122.763V114.125C218.855 101.794 229.441 91.7615 242.321 91.7615H262.141C274.656 91.7615 284.735 101.506 284.735 113.482V121.872C284.735 123.655 283.245 125.122 281.405 125.15V125.151Z" fill="#D56F95"/>
<path d="M257.748 153.414C257.748 149.142 254.031 145.786 249.512 146.094C245.516 146.367 242.211 149.578 241.996 153.412C241.829 156.387 243.458 158.96 245.934 160.26C246.988 160.814 247.512 161.98 247.307 163.133L245.57 172.915C245.349 174.161 246.346 175.255 247.659 175.208L252.124 175.048C253.43 175 254.421 173.839 254.202 172.614L252.466 162.922C252.259 161.765 252.858 160.618 253.914 159.983C256.211 158.605 257.748 156.161 257.748 153.412V153.414Z" fill="#B60044"/>
<path d="M135.551 252.38C135.552 252.297 135.546 252.211 135.526 252.126C134.264 247.106 128.002 243.98 128.002 243.98L125.52 244.176C124.093 248.6 124.277 251.313 124.506 252.522C124.513 252.556 124.523 252.588 124.532 252.621C126.578 252.805 130.792 252.924 135.551 252.381V252.38Z" fill="url(#paint0_linear_2_528)"/>
<path d="M124.532 252.62C124.642 253.023 124.939 253.337 125.319 253.418C128.231 254.032 132.859 253.538 134.802 253.283C135.231 253.227 135.544 252.829 135.551 252.38C130.792 252.924 126.578 252.804 124.532 252.62Z" fill="#91B3FA"/>
<path d="M124.522 240.466L125.573 245.543C125.651 245.915 125.935 246.194 126.28 246.227C126.702 246.267 127.304 246.29 127.908 246.201C128.45 246.122 128.828 245.568 128.732 244.975L128.002 240.467H124.522V240.466Z" fill="url(#paint1_linear_2_528)"/>
<path d="M146.298 252.556C143.557 252.479 142.14 252.155 141.407 251.855C141.405 252.128 141.407 252.406 141.416 252.694C141.425 253.003 141.653 253.248 141.932 253.247L156.979 253.149C157.459 253.147 157.739 252.587 157.532 252.146C155.559 252.31 150.534 252.676 146.298 252.556Z" fill="#91B3FA"/>
<path d="M157.532 252.145C157.514 252.106 157.498 252.067 157.472 252.031C156.143 250.168 152.759 246.457 146.071 244.848L142.862 244.746C142.862 244.746 141.433 247.238 141.407 251.854C142.14 252.154 143.558 252.478 146.298 252.555C150.534 252.675 155.559 252.308 157.532 252.145Z" fill="url(#paint2_linear_2_528)"/>
<path d="M142.125 240.018C142.176 240.255 142.843 243.868 143.101 245.268C143.163 245.601 143.422 245.846 143.729 245.863C144.278 245.894 145.164 245.897 145.926 245.689C146.336 245.577 146.613 245.157 146.584 244.69L146.225 238.976L142.125 240.018Z" fill="url(#paint3_linear_2_528)"/>
<path d="M139.694 173.316C139.694 173.316 144.107 203.75 147.292 239.966C147.352 240.64 146.816 241.227 146.156 241.366C145.183 241.572 143.753 241.817 142.569 241.783C141.937 241.765 141.408 241.294 141.302 240.669C140.217 234.284 132.475 200.014 130.442 192.471C130.442 192.471 128.108 224.51 128.855 241.131C128.873 241.545 128.571 241.903 128.162 241.95C127.541 242.022 126.547 242.077 125.282 241.943C124.803 241.892 124.415 241.528 124.346 241.048C123.574 235.644 119.125 203.477 119.314 180.304C119.324 178.997 120.842 168.261 120.842 168.261L139.696 173.316H139.694Z" fill="url(#paint4_linear_2_528)"/>
<path d="M141.403 122.137L141.994 138.062C143.673 138.642 145.271 139.092 146.793 139.428C147.745 136.354 149.841 132.58 151.556 129.773C145.25 127.536 141.403 122.136 141.403 122.136V122.137Z" fill="#D6145C"/>
<path d="M120.177 175.07C119.724 174.908 119.408 174.496 119.358 174.016C118.771 168.301 115.929 132.872 133.87 118.298C133.87 118.298 134.898 115.597 143.356 122.237C151.813 128.877 147.285 135.837 145.26 145.436C142.81 157.053 138.511 166.548 140.412 173.697C140.544 174.19 140.285 174.708 139.808 174.885C133.239 177.314 126.694 177.394 120.176 175.07H120.177Z" fill="#ED1E6B"/>
<path d="M140.868 107.683C140.862 108.187 133.698 118.398 133.698 118.398C133.698 118.398 134.983 120.939 141.123 123.002L146.421 112.069L140.868 107.683Z" fill="url(#paint5_linear_2_528)"/>
<path d="M137.319 142.621C137.275 142.621 137.229 142.608 137.189 142.582C131.466 138.701 128.773 132.438 128.747 132.376C128.697 132.256 128.753 132.12 128.871 132.07C128.99 132.019 129.126 132.074 129.176 132.193C129.201 132.254 131.844 138.393 137.45 142.194C137.556 142.266 137.584 142.411 137.512 142.518C137.467 142.585 137.394 142.621 137.319 142.621V142.621Z" fill="#D6145C"/>
<path d="M145.843 133.942C145.767 133.942 145.692 133.904 145.648 133.834C145.631 133.808 143.883 131.076 140.552 125.093C139.528 123.253 138.182 122.087 136.552 121.63C133.853 120.872 131.251 122.325 131.225 122.34C131.113 122.401 130.972 122.364 130.908 122.252C130.845 122.14 130.883 121.997 130.995 121.934C131.107 121.87 133.783 120.367 136.673 121.179C138.429 121.671 139.871 122.911 140.958 124.864C144.28 130.833 146.022 133.555 146.039 133.581C146.109 133.689 146.078 133.834 145.969 133.904C145.93 133.929 145.886 133.941 145.843 133.941V133.942Z" fill="#D6145C"/>
<path d="M146.508 101.831C146.508 101.831 149.058 107.707 149.228 110.791C149.399 113.876 150.062 115.876 146.508 116.498C142.955 117.119 139.961 115.343 138.339 112.271C138.339 112.271 135.799 107.537 136.368 105.598C136.938 103.66 146.508 101.832 146.508 101.832V101.831Z" fill="url(#paint6_linear_2_528)"/>
<path d="M139.554 110.062L139.756 109.973C140.014 109.859 140.123 109.551 139.994 109.301C139.492 108.329 138.516 106.103 139.778 105.583C141.404 104.914 147.847 103.596 149.237 101.301C150.572 99.0966 149.389 96.2503 147.611 95.4409C147.492 95.3869 147.351 95.4295 147.29 95.5461L147.142 95.8276C147.041 96.02 146.757 95.9906 146.696 95.7821C146.639 95.5812 146.372 95.5423 146.262 95.7195C145.835 96.4058 144.681 97.5185 141.596 98.09C137.212 98.9023 134.314 100.682 134.241 103.723C134.236 103.916 134.031 104.023 133.867 103.923C133.543 103.725 133.025 103.632 132.333 104.216C131.129 105.232 131.622 107.867 134.261 110.035C134.386 110.138 134.386 110.335 134.25 110.423C133.771 110.736 133.058 111.479 134.906 112.47C136.818 113.496 138.245 113.411 138.794 113.32C138.931 113.297 139.019 113.165 138.989 113.029L138.403 110.357C138.369 110.206 138.484 110.063 138.639 110.063H139.553L139.554 110.062Z" fill="url(#paint7_linear_2_528)"/>
<path d="M139.663 110.626C139.663 110.626 138.691 106.872 137.014 107.924C135.337 108.977 137.884 112.13 139.233 112.27L139.663 110.625V110.626Z" fill="url(#paint8_linear_2_528)"/>
<path d="M172.671 120.939C172.671 120.939 171.393 118.666 171.474 117.561C171.556 116.456 170.87 114.835 171.6 114.954C172.33 115.075 172.48 114.976 172.679 116.301C172.877 117.626 175.18 123.414 172.671 120.938V120.939Z" fill="url(#paint9_linear_2_528)"/>
<path d="M172.912 117.325L172.883 121.866C164.234 131.236 157.233 131.788 151.557 129.774C149.84 132.58 147.745 136.354 146.794 139.429C169.89 144.539 175.329 123.231 175.329 123.231C178.457 121.931 179.088 121.17 178.953 120.318L172.912 117.324V117.325Z" fill="url(#paint10_linear_2_528)"/>
<path d="M179.563 112.82C178.824 112.519 177.38 109.756 177.104 110.664C176.827 111.573 177.221 112.82 177.104 113.206C176.986 113.593 175.186 118.041 175.545 119.029C175.805 119.742 177.235 119.636 177.453 120.803C177.526 121.19 177.834 121.468 178.192 121.468C178.55 121.468 178.858 121.192 178.93 120.804C178.96 120.649 180.301 113.12 179.563 112.82Z" fill="url(#paint11_linear_2_528)"/>
<path d="M155.988 103.362C150.156 114.937 154.779 129.065 166.315 134.918C175.69 139.675 186.746 137.501 193.689 130.304L233.767 150.638C234.433 150.975 235.225 150.948 235.865 150.565L239.785 148.222C239.852 148.181 239.916 148.138 239.977 148.091C239.994 148.078 240.011 148.065 240.028 148.051C240.074 148.014 240.118 147.976 240.16 147.937C240.174 147.924 240.188 147.91 240.202 147.896C240.254 147.844 240.304 147.791 240.351 147.735L240.352 147.732C240.845 147.131 240.995 146.292 240.693 145.534L237.509 137.522C237.312 137.028 236.942 136.622 236.468 136.381L232.454 134.344L231.391 136.453L227.943 134.704L229.005 132.595L225.779 130.958L224.801 132.897L220.61 130.77L221.588 128.831L220.027 128.039L219.523 129.037L216.01 127.254L216.513 126.256L213.781 124.869L212.718 126.978L210.766 125.988L211.828 123.879L210.137 123.02L209.074 125.128L205.691 123.411L206.754 121.303L201.998 118.89L199.962 117.856C201.621 107.979 196.812 97.7554 187.437 92.9984C175.901 87.1457 161.823 91.7852 155.99 103.361L155.988 103.362ZM169.643 104.961C171.979 106.145 172.915 109.007 171.734 111.351C170.554 113.695 167.702 114.634 165.366 113.449C163.031 112.264 162.095 109.403 163.275 107.059C164.456 104.715 167.307 103.776 169.643 104.961Z" fill="#FCEF7C"/>
<path d="M188.475 110.455L207.473 120.094L206.411 122.203L209.794 123.92L210.856 121.811L212.548 122.669L211.485 124.778L213.438 125.769L214.5 123.66L217.233 125.046L216.729 126.045L220.243 127.827L220.746 126.829L222.308 127.622L221.33 129.561L225.521 131.688L226.498 129.749L229.725 131.385L228.662 133.494L232.111 135.244L233.173 133.135L237.187 135.172C237.661 135.413 238.031 135.818 238.228 136.313L241.413 144.325C241.81 145.323 241.424 146.463 240.504 147.014L236.585 149.357C235.943 149.74 235.152 149.767 234.487 149.43L186.106 124.883L188.473 110.455H188.475Z" fill="#FCEF7C"/>
<path d="M167.036 133.709C178.571 139.562 192.65 134.923 198.482 123.347C204.315 111.771 199.691 97.6436 188.156 91.7909C176.621 85.9382 162.542 90.5777 156.71 102.153C150.878 113.729 155.501 127.857 167.036 133.709ZM166.089 112.241C163.753 111.056 162.817 108.194 163.998 105.851C165.178 103.507 168.03 102.567 170.366 103.752C172.701 104.937 173.637 107.798 172.457 110.142C171.276 112.486 168.425 113.425 166.089 112.241Z" fill="url(#paint12_linear_2_528)"/>
<path d="M194.41 129.095L234.488 149.43C235.154 149.767 235.945 149.74 236.586 149.357L240.505 147.014C241.097 146.66 241.463 146.063 241.547 145.417C237.895 141.445 203.173 126.23 201.874 123.099C201.412 121.985 201.333 120.298 202.718 117.682L200.681 116.649C202.341 106.772 197.531 96.5479 188.156 91.7909C176.621 85.9382 162.542 90.5777 156.71 102.153C150.878 113.729 155.501 127.857 167.036 133.709C176.411 138.466 187.468 136.291 194.411 129.095H194.41ZM170.365 103.752C172.7 104.937 173.636 107.798 172.456 110.142C171.275 112.486 168.424 113.425 166.088 112.241C163.752 111.056 162.816 108.195 163.997 105.851C165.177 103.507 168.029 102.567 170.365 103.752Z" fill="#F1DA06"/>
<path d="M169.108 129.596C178.38 134.3 189.696 130.571 194.383 121.268C199.071 111.964 195.355 100.608 186.084 95.9044C176.813 91.2004 165.497 94.9291 160.809 104.233C156.121 113.536 159.837 124.892 169.108 129.596ZM166.088 112.241C163.752 111.056 162.816 108.195 163.997 105.851C165.177 103.507 168.029 102.567 170.365 103.752C172.7 104.937 173.636 107.798 172.456 110.142C171.275 112.486 168.424 113.425 166.088 112.241Z" fill="#FCEF7C"/>
<path d="M137.319 142.622C137.319 142.622 159.359 150.026 171.687 140.607C172.452 140.023 173.416 139.768 174.365 139.922L179.074 140.692C181.051 141.015 182.934 139.73 183.36 137.766C183.603 136.646 183.72 135.42 183.472 134.368L174.582 133.83L174.836 132.672C174.836 132.672 170.906 133.637 170.827 136.722C170.827 136.722 161.609 142.782 144.797 133.377C144.797 133.377 138.25 138.519 137.319 142.622Z" fill="url(#paint13_linear_2_528)"/>
<g opacity="0.3">
<path opacity="0.3" d="M84.1751 102.098C83.7609 102.081 83.4382 101.73 83.4557 101.314C83.4885 100.506 83.487 99.6841 83.4511 98.8718C83.4328 98.4607 83.7464 98.1124 84.1538 98.0864H84.1683C84.5825 98.0672 84.9334 98.3895 84.9517 98.8052C84.9899 99.6604 84.9914 100.525 84.9563 101.376C84.9403 101.765 84.6329 102.073 84.2545 102.097C84.2285 102.099 84.2018 102.099 84.1751 102.098ZM83.0056 94.9308C82.8599 94.1315 82.6783 93.3308 82.4663 92.5507C82.3572 92.1495 82.5929 91.7346 82.9934 91.6251C83.3955 91.5164 83.8067 91.7529 83.9158 92.1541C84.1385 92.9748 84.33 93.8176 84.4833 94.659C84.5581 95.0686 84.288 95.4613 83.8799 95.5363C83.8501 95.5417 83.8204 95.5455 83.7914 95.547C83.4168 95.5708 83.075 95.3105 83.0056 94.9308ZM81.1648 88.8071C80.8459 88.0622 80.4911 87.3227 80.1097 86.6077C79.9136 86.241 80.0517 85.7839 80.4171 85.5872C80.7826 85.3912 81.238 85.529 81.4341 85.8957C81.8354 86.6482 82.2092 87.4276 82.5448 88.2115C82.7089 88.5943 82.5319 89.0368 82.1512 89.2014C82.0695 89.2366 81.9856 89.2557 81.9025 89.2611C81.5943 89.281 81.2937 89.1072 81.1648 88.8063V88.8071ZM78.0056 83.2507C77.5288 82.5954 77.0177 81.9538 76.4875 81.3422C76.2151 81.0283 76.2479 80.5521 76.5607 80.2788C76.8735 80.0055 77.348 80.0384 77.6204 80.3523C78.1788 80.9961 78.7167 81.6714 79.2186 82.3611C79.4635 82.6972 79.3903 83.1688 79.0554 83.4145C78.9356 83.5026 78.7983 83.5493 78.6602 83.5584C78.4123 83.5745 78.1628 83.4666 78.0056 83.2515V83.2507ZM73.6915 78.5387C73.0827 78.0074 72.4426 77.4945 71.7896 77.0153C71.4547 76.7695 71.3822 76.2979 71.6263 75.9619C71.8712 75.6258 72.3412 75.5523 72.6761 75.7988C73.3634 76.3033 74.0371 76.8422 74.6771 77.4019C74.9899 77.6752 75.0235 78.1513 74.7511 78.4652C74.6138 78.6237 74.4254 78.7102 74.2324 78.7224C74.0424 78.7347 73.8471 78.6742 73.6923 78.5387H73.6915ZM68.4459 74.9023C67.7341 74.5188 66.9971 74.1613 66.2556 73.8397C65.8749 73.6744 65.6994 73.2311 65.8642 72.8491C66.029 72.4671 66.4707 72.291 66.8514 72.4564C67.6318 72.7948 68.4077 73.1714 69.1569 73.5749C69.5223 73.7716 69.6596 74.2286 69.4628 74.5953C69.3354 74.8334 69.0981 74.9751 68.8479 74.9911C68.7129 74.9996 68.574 74.972 68.4459 74.9031V74.9023ZM40.5561 74.5517C40.3608 74.1842 40.4996 73.728 40.8651 73.532C41.615 73.1308 42.3924 72.7572 43.1759 72.4212C43.5573 72.2573 43.999 72.4357 44.1615 72.8185C44.3248 73.2013 44.147 73.6438 43.7656 73.8076C43.0218 74.1261 42.2833 74.4813 41.5715 74.8625C41.4739 74.9146 41.3701 74.9429 41.2664 74.9498C40.9818 74.9682 40.6988 74.8212 40.5553 74.5517H40.5561ZM62.5312 72.5245C61.753 72.3094 60.9558 72.1257 60.1616 71.9787C59.7535 71.9029 59.4842 71.5094 59.5597 71.1006C59.6352 70.691 60.0266 70.4231 60.4347 70.4966C61.2709 70.652 62.11 70.8449 62.9302 71.0715C63.3299 71.1817 63.5649 71.5967 63.455 71.9986C63.3681 72.317 63.0896 72.5314 62.7783 72.5505C62.6975 72.5559 62.6143 72.5475 62.5312 72.5245ZM46.5791 71.9771C46.4708 71.5752 46.708 71.1618 47.1086 71.0531C47.9287 70.8303 48.7694 70.6405 49.607 70.4881C50.0152 70.4123 50.4058 70.6857 50.4798 71.0952C50.5538 71.5048 50.283 71.8968 49.8748 71.971C49.0791 72.1157 48.2796 72.2964 47.5007 72.5077C47.4511 72.5215 47.4008 72.5291 47.3519 72.5322C47.0025 72.5544 46.6745 72.3285 46.5799 71.9764L46.5791 71.9771ZM56.2366 71.5331C55.4302 71.4987 54.6124 71.4979 53.8037 71.5324C53.3894 71.55 53.0393 71.2277 53.0217 70.8112C53.0042 70.4009 53.3177 70.0533 53.7244 70.0273C53.7297 70.0273 53.735 70.0273 53.7404 70.0273C54.591 69.9905 55.4523 69.9913 56.3014 70.0273C56.7156 70.0456 57.0376 70.397 57.0193 70.8127C57.0025 71.2009 56.6958 71.5086 56.3174 71.5324C56.2907 71.5339 56.264 71.5347 56.2366 71.5331Z" fill="#91B3FA"/>
<path opacity="0.3" d="M36.8576 77.852C37.0048 77.8428 37.1513 77.79 37.2764 77.6905C37.5793 77.4485 37.8928 77.2097 38.2079 76.9785C38.5428 76.7335 38.6168 76.2619 38.3719 75.9251C38.1278 75.589 37.6571 75.5148 37.3222 75.7605C36.9911 76.0032 36.6615 76.2543 36.3426 76.5084C36.0176 76.7672 35.9635 77.2418 36.2213 77.5672C36.38 77.7685 36.6211 77.8658 36.8583 77.8512L36.8576 77.852Z" fill="#91B3FA"/>
</g>
<g opacity="0.3">
<path opacity="0.3" d="M25.9078 98.0336C26.2694 98.0106 26.5715 97.7274 26.6073 97.353C26.644 96.9664 26.6897 96.5737 26.7431 96.1863C26.7996 95.7737 26.512 95.3932 26.1016 95.3366C25.6889 95.2799 25.3112 95.5685 25.2548 95.9804C25.1991 96.3884 25.151 96.8018 25.1121 97.2091C25.0725 97.6233 25.3753 97.9915 25.788 98.0313C25.8285 98.0351 25.8689 98.0359 25.9078 98.0328V98.0336Z" fill="#91B3FA"/>
<path opacity="0.3" d="M55.3714 130.211C54.9564 130.217 54.6154 129.884 54.6093 129.467C54.6032 129.051 54.9343 128.709 55.3493 128.703C56.1389 128.692 56.9407 128.647 57.7402 128.569C58.1506 128.527 58.5206 128.832 58.5603 129.246C58.6007 129.66 58.2987 130.029 57.8852 130.069C57.5388 130.103 57.1925 130.131 56.8476 130.152C56.3556 130.184 55.8582 130.203 55.3699 130.211H55.3714ZM61.0206 128.835C60.9253 128.43 61.1748 128.024 61.5783 127.928C62.3534 127.743 63.1285 127.524 63.883 127.276C64.2767 127.145 64.7016 127.362 64.8305 127.758C64.9594 128.153 64.7451 128.579 64.3507 128.709C63.5565 128.97 62.7402 129.201 61.9247 129.395C61.8827 129.405 61.84 129.411 61.798 129.414C61.4395 129.437 61.1061 129.198 61.0206 128.835ZM51.2846 129.988C50.4553 129.885 49.6185 129.746 48.7983 129.572C48.3925 129.486 48.1323 129.087 48.2178 128.68C48.3032 128.272 48.7015 128.012 49.1073 128.097C49.8862 128.262 50.6804 128.394 51.4677 128.491C51.8797 128.543 52.1719 128.918 52.1215 129.332C52.0765 129.697 51.7782 129.969 51.4242 129.992C51.3785 129.995 51.3311 129.993 51.2838 129.988H51.2846ZM67.1406 126.818C66.9582 126.443 67.1131 125.992 67.4861 125.809C68.201 125.46 68.909 125.075 69.591 124.666C69.9472 124.452 70.408 124.569 70.6209 124.926C70.8337 125.284 70.7178 125.746 70.3615 125.96C69.6428 126.391 68.8975 126.796 68.1453 127.165C68.0545 127.209 67.9591 127.233 67.8638 127.24C67.5693 127.259 67.2786 127.1 67.1406 126.818ZM44.8634 128.454C44.0776 128.17 43.2926 127.85 42.5304 127.5C42.1536 127.327 41.9872 126.88 42.1597 126.502C42.3321 126.123 42.7776 125.956 43.1552 126.129C43.8792 126.462 44.6246 126.766 45.3714 127.035C45.762 127.176 45.965 127.608 45.8246 127.999C45.7201 128.291 45.4546 128.478 45.1647 128.497C45.0655 128.503 44.9633 128.49 44.8634 128.454ZM38.9334 125.544C38.2262 125.094 37.5297 124.609 36.8637 124.103C36.5333 123.851 36.4677 123.379 36.7187 123.047C36.9697 122.715 37.4404 122.65 37.7707 122.902C38.4039 123.383 39.0661 123.844 39.7375 124.271C40.0876 124.494 40.1922 124.96 39.9702 125.312C39.8359 125.524 39.6146 125.646 39.3827 125.66C39.2302 125.67 39.073 125.633 38.9334 125.545V125.544ZM33.7762 121.406C33.1835 120.812 32.6082 120.186 32.0681 119.546C31.7996 119.229 31.8393 118.753 32.1559 118.484C32.4725 118.214 32.9462 118.254 33.2147 118.572C33.7282 119.18 34.2744 119.774 34.8374 120.339C35.1311 120.633 35.1319 121.111 34.8382 121.404C34.7039 121.54 34.5307 121.613 34.3545 121.624C34.147 121.637 33.9349 121.564 33.7762 121.405V121.406ZM29.6414 116.238C29.192 115.528 28.7679 114.791 28.3803 114.047C28.1881 113.678 28.3307 113.222 28.6984 113.029C29.0654 112.837 29.5201 112.98 29.7116 113.349C30.0793 114.055 30.4821 114.755 30.9093 115.429C31.1321 115.78 31.0283 116.245 30.6781 116.469C30.5675 116.539 30.4454 116.578 30.3234 116.585C30.0587 116.602 29.7932 116.477 29.6414 116.237V116.238ZM26.7378 110.281C26.4563 109.492 26.2045 108.679 25.9894 107.867C25.8826 107.464 26.1214 107.052 26.5227 106.945C26.9224 106.839 27.3351 107.078 27.4412 107.481C27.6449 108.252 27.8844 109.024 28.1522 109.773C28.2918 110.165 28.0889 110.596 27.6983 110.737C27.6304 110.762 27.561 110.776 27.4923 110.78C27.1665 110.801 26.853 110.605 26.7378 110.282V110.281ZM25.2097 103.837C25.1334 103.223 25.0747 102.6 25.0358 101.985C25.0221 101.762 25.0098 101.539 25.0007 101.317C24.9831 100.901 25.2997 100.542 25.7201 100.533C26.1343 100.516 26.4845 100.839 26.5021 101.255C26.5112 101.466 26.5219 101.678 26.5349 101.89C26.5723 102.475 26.6272 103.067 26.6996 103.65C26.7515 104.063 26.4593 104.441 26.0474 104.492C26.0321 104.493 26.0161 104.496 26.0008 104.496C25.608 104.522 25.2586 104.235 25.209 103.837L25.2097 103.837Z" fill="#91B3FA"/>
<path opacity="0.3" d="M73.3168 123.768C73.4656 123.758 73.6136 123.704 73.7387 123.604C74.0561 123.348 74.3734 123.082 74.6832 122.811C74.9959 122.537 75.028 122.061 74.7556 121.747C74.4825 121.434 74.0088 121.401 73.696 121.675C73.4015 121.932 73.1002 122.185 72.7988 122.428C72.4754 122.688 72.4235 123.163 72.6829 123.487C72.8423 123.687 73.0811 123.783 73.3168 123.768V123.768Z" fill="#91B3FA"/>
</g>
<path d="M74.7359 110.925C74.8229 110.802 74.8236 110.638 74.7359 110.516L72.2611 107.02C73.0217 105.169 73.4932 103.183 73.6282 101.127L77.3824 99.0862C77.5144 99.0142 77.5861 98.8673 77.5617 98.7187L76.7233 93.6454C76.6988 93.4969 76.5829 93.3805 76.4356 93.356L72.226 92.641C71.4372 90.7386 70.3516 89.0115 69.0364 87.5057L70.2539 83.3962C70.2966 83.2522 70.2432 83.0968 70.1219 83.0095L65.9543 80.017C65.8322 79.9297 65.6689 79.929 65.5469 80.017L62.0635 82.5005C60.2189 81.7372 58.2391 81.2641 56.1908 81.1286L54.1569 77.3613C54.0852 77.2288 53.9387 77.1569 53.7907 77.1814L48.735 78.0227C48.587 78.0472 48.4711 78.1636 48.4467 78.3113L47.7341 82.5364C45.8383 83.328 44.1172 84.4174 42.6166 85.7372L38.5214 84.5154C38.378 84.4725 38.2231 84.5261 38.1362 84.6478L35.154 88.8301C35.0671 88.9526 35.0663 89.1164 35.154 89.2389L37.6288 92.7344C36.8682 94.5855 36.3968 96.5714 36.2617 98.6276L32.5076 100.669C32.3756 100.74 32.3039 100.888 32.3283 101.036L33.1667 106.109C33.1911 106.258 33.3071 106.374 33.4543 106.399L37.6639 107.114C38.4528 109.016 39.5384 110.743 40.8536 112.249L39.636 116.359C39.5933 116.503 39.6467 116.658 39.768 116.745L43.9357 119.738C44.0577 119.825 44.221 119.826 44.3431 119.738L47.8264 117.254C49.6711 118.018 51.65 118.491 53.6992 118.626L55.733 122.394C55.804 122.525 55.9512 122.598 56.0992 122.573L61.1549 121.732C61.3029 121.708 61.4189 121.591 61.4433 121.443L62.1558 117.219C64.0516 116.428 65.7727 115.338 67.2733 114.018L71.3685 115.24C71.5119 115.283 71.6668 115.229 71.7538 115.108L74.7359 110.926V110.925Z" fill="#CF1E60"/>
<path d="M54.5177 105.028C51.6866 104.791 49.5757 102.289 49.8107 99.4476C49.9243 98.0711 50.5659 96.8225 51.6165 95.9299C52.6662 95.038 53.9997 94.6093 55.3714 94.7241C58.2025 94.9607 60.3135 97.4633 60.0785 100.304C59.8641 102.889 57.7807 104.875 55.2745 105.035C55.0258 105.051 54.7733 105.049 54.5177 105.028ZM52.3923 96.8508C51.5867 97.5352 51.0954 98.4922 51.0077 99.5479C50.8276 101.726 52.4465 103.645 54.6169 103.826C56.7881 104.008 58.6999 102.382 58.8808 100.204C59.0608 98.0259 57.4419 96.1067 55.2715 95.926C55.0747 95.9099 54.8794 95.9076 54.6856 95.9199C53.8449 95.9735 53.0469 96.2943 52.3923 96.85V96.8508Z" fill="#A40936"/>
<path d="M55.6399 112.494C56.0701 112.467 56.502 112.418 56.933 112.346C57.0688 112.323 57.2038 112.298 57.3388 112.271C58.0041 112.138 58.6586 111.952 59.2903 111.716C59.2987 111.713 59.3079 111.71 59.3163 111.706C59.3407 111.697 59.3651 111.688 59.3895 111.678C59.4368 111.66 59.4841 111.641 59.5314 111.623C59.6557 111.574 59.729 111.451 59.7206 111.324C59.7183 111.293 59.7122 111.262 59.7 111.232C59.639 111.077 59.4643 111.001 59.3102 111.062C58.516 111.378 57.6829 111.609 56.8338 111.75C52.6158 112.453 48.5381 110.857 45.8733 107.88C44.391 106.224 43.3459 104.14 42.9568 101.786C42.8881 101.374 42.8416 100.96 42.8156 100.548C42.6409 97.7755 43.4145 95.0502 45.0471 92.7604C46.9223 90.1299 49.7061 88.3898 52.8858 87.8608C59.452 86.7684 65.675 91.2385 66.7636 97.8245C66.8307 98.2303 66.8773 98.6383 66.9025 99.0471C67.0138 100.816 66.7384 102.589 66.09 104.239C66.0732 104.282 66.0671 104.326 66.0694 104.368C66.0762 104.481 66.1472 104.586 66.2594 104.63C66.4142 104.69 66.5881 104.615 66.6492 104.46C67.3304 102.727 67.6196 100.865 67.5021 99.0088C67.4754 98.5801 67.4266 98.1522 67.3564 97.7258C66.2136 90.8105 59.6763 86.1192 52.7882 87.2652C49.4505 87.821 46.5279 89.6476 44.5589 92.409C42.8446 94.8128 42.0322 97.6745 42.216 100.585C42.2435 101.018 42.2931 101.452 42.364 101.885C42.9179 105.235 44.7381 108.167 47.4891 110.143C49.8854 111.863 52.7378 112.679 55.6391 112.494H55.6399Z" fill="#A40936"/>
<g opacity="0.3">
<path opacity="0.3" d="M434.496 83.9004C434.697 83.8874 434.872 83.745 434.919 83.5383C435.006 83.1525 435.082 82.7598 435.146 82.3693C435.187 82.1159 435.016 81.8763 434.763 81.835C434.509 81.7921 434.271 81.9659 434.23 82.2193C434.169 82.5914 434.097 82.9665 434.014 83.3339C433.958 83.5843 434.115 83.8338 434.364 83.8905C434.409 83.9004 434.453 83.9035 434.496 83.9004Z" fill="#91B3FA"/>
<path opacity="0.3" d="M434.912 80.3498C434.655 80.3398 434.456 80.1239 434.466 79.8667C434.49 79.2183 434.482 78.5614 434.442 77.9138C434.433 77.7775 434.423 77.6405 434.411 77.5027C434.39 77.247 434.579 77.0212 434.834 76.9997C435.076 76.989 435.314 77.1681 435.336 77.4246C435.348 77.5685 435.359 77.7117 435.368 77.8541C435.41 78.5331 435.42 79.2221 435.393 79.9019C435.384 80.1423 435.194 80.3337 434.96 80.3483C434.944 80.349 434.928 80.349 434.912 80.3483L434.912 80.3498ZM434.069 75.1632C433.908 74.393 433.699 73.6259 433.447 72.8841C433.364 72.6407 433.493 72.3765 433.736 72.2931C433.977 72.2104 434.242 72.3398 434.325 72.5832C434.59 73.361 434.809 74.1656 434.978 74.9725C435.031 75.2244 434.87 75.4709 434.619 75.5237C434.596 75.5283 434.574 75.5314 434.552 75.5322C434.326 75.5467 434.117 75.3921 434.069 75.1632ZM432.547 70.6984C432.203 69.9926 431.813 69.3005 431.384 68.6422C431.244 68.427 431.305 68.1384 431.519 67.9983C431.734 67.8575 432.021 67.9179 432.161 68.1338C432.611 68.8244 433.02 69.5501 433.38 70.2904C433.493 70.5216 433.397 70.8003 433.167 70.9128C433.11 70.9404 433.052 70.9549 432.993 70.9587C432.811 70.9702 432.631 70.873 432.547 70.6984ZM429.978 66.7451C429.472 66.1442 428.924 65.5692 428.35 65.0372C428.161 64.8626 428.15 64.5679 428.324 64.3796C428.497 64.1912 428.791 64.179 428.979 64.3535C429.581 64.9116 430.156 65.5141 430.687 66.1449C430.852 66.3409 430.827 66.6349 430.632 66.801C430.552 66.8676 430.458 66.9036 430.362 66.9097C430.221 66.9189 430.077 66.863 429.978 66.7459V66.7451ZM426.525 63.5413C425.889 63.0819 425.219 62.6586 424.532 62.2812C424.308 62.1579 424.226 61.8747 424.349 61.6496C424.471 61.4237 424.754 61.3411 424.978 61.4651C425.697 61.8601 426.4 62.3049 427.067 62.7857C427.274 62.9357 427.322 63.2266 427.173 63.4356C427.088 63.5535 426.959 63.6201 426.825 63.6285C426.722 63.6354 426.615 63.6071 426.525 63.542V63.5413ZM422.402 61.276C421.674 60.9858 420.922 60.7393 420.165 60.5426C419.917 60.4783 419.768 60.2241 419.832 59.9753C419.896 59.7265 420.149 59.5772 420.397 59.6415C421.191 59.8482 421.98 60.107 422.743 60.4109C422.981 60.5058 423.098 60.7761 423.004 61.0149C422.935 61.188 422.775 61.2967 422.601 61.3081C422.535 61.3127 422.467 61.3028 422.401 61.276H422.402ZM417.853 60.0917C417.08 59.9899 416.289 59.9363 415.504 59.9317C415.247 59.9301 415.041 59.7204 415.043 59.4632C415.044 59.2059 415.253 59.0031 415.51 59C416.333 59.0054 417.162 59.062 417.974 59.1684C418.228 59.2021 418.407 59.4356 418.374 59.6905C418.345 59.9148 418.161 60.081 417.943 60.0947C417.913 60.0963 417.884 60.0955 417.853 60.0917ZM410.272 60.1391C410.211 59.8896 410.363 59.6377 410.613 59.5765C411.301 59.408 412.012 59.2741 412.721 59.1791C412.829 59.1638 412.936 59.1508 413.044 59.1378C413.296 59.1011 413.529 59.2909 413.558 59.5466C413.588 59.8023 413.406 60.0327 413.151 60.0626C413.05 60.0741 412.949 60.0871 412.846 60.1009C412.167 60.1912 411.489 60.319 410.832 60.4798C410.806 60.4867 410.778 60.4905 410.751 60.4921C410.531 60.5058 410.326 60.3604 410.272 60.1376V60.1391Z" fill="#91B3FA"/>
</g>
<g opacity="0.3">
<path opacity="0.3" d="M416.36 99.1916C415.553 99.2321 414.736 99.2237 413.932 99.1671C413.676 99.1487 413.484 98.9267 413.502 98.6695C413.52 98.413 413.743 98.2224 413.998 98.2377C414.764 98.292 415.543 98.2997 416.314 98.2607C416.569 98.2476 416.787 98.4452 416.8 98.7024C416.813 98.9573 416.62 99.1747 416.366 99.1908H416.36V99.1916ZM418.239 98.5431C418.196 98.2897 418.365 98.0494 418.618 98.0057C419.377 97.8748 420.136 97.6957 420.874 97.4744C421.118 97.4017 421.378 97.541 421.452 97.7875C421.525 98.0341 421.385 98.2928 421.14 98.3671C420.367 98.599 419.571 98.7866 418.775 98.9236C418.759 98.9267 418.742 98.9282 418.725 98.9297C418.492 98.9443 418.28 98.7812 418.239 98.5439V98.5431ZM411.523 98.8471C410.729 98.6909 409.937 98.485 409.171 98.2346C408.928 98.155 408.795 97.8917 408.874 97.6474C408.953 97.4025 409.214 97.27 409.458 97.3489C410.189 97.5877 410.944 97.7845 411.701 97.9338C411.953 97.9835 412.116 98.2277 412.067 98.4796C412.026 98.6917 411.847 98.8417 411.642 98.8547C411.603 98.857 411.563 98.8547 411.523 98.8471ZM422.811 97.2861C422.708 97.0511 422.815 96.7762 423.05 96.6729C423.756 96.3621 424.449 96.0053 425.111 95.6111C425.332 95.4802 425.616 95.5537 425.747 95.7734C425.877 95.9946 425.805 96.2802 425.584 96.4111C424.89 96.8245 424.162 97.1996 423.422 97.525C423.371 97.5472 423.318 97.5602 423.265 97.5632C423.076 97.5755 422.891 97.4698 422.811 97.2853V97.2861ZM406.913 97.3397C406.182 96.9975 405.464 96.6063 404.779 96.1776C404.561 96.0413 404.495 95.7542 404.631 95.536C404.767 95.3179 405.053 95.2505 405.27 95.3875C405.924 95.7971 406.608 96.1699 407.306 96.4961C407.538 96.6048 407.639 96.8819 407.53 97.1146C407.456 97.2746 407.303 97.3718 407.139 97.3826C407.064 97.3872 406.987 97.3741 406.914 97.3397H406.913ZM402.798 94.7659C402.169 94.2568 401.564 93.7041 401.002 93.1246C400.823 92.9408 400.827 92.6461 401.01 92.4669C401.193 92.2878 401.487 92.2916 401.666 92.4754C402.202 93.0281 402.779 93.5548 403.38 94.0409C403.579 94.2025 403.611 94.4957 403.451 94.6955C403.366 94.8011 403.244 94.8601 403.119 94.8677C403.007 94.8746 402.892 94.8417 402.798 94.7659ZM399.416 91.2773C398.925 90.6311 398.47 89.949 398.064 89.2509C397.934 89.0288 398.009 88.7441 398.23 88.6139C398.451 88.4838 398.735 88.5596 398.865 88.7808C399.252 89.4468 399.686 90.0976 400.154 90.7131C400.309 90.9175 400.27 91.2099 400.066 91.3653C399.99 91.4235 399.902 91.4541 399.815 91.4595C399.665 91.4687 399.513 91.4059 399.416 91.2773Z" fill="#91B3FA"/>
<path opacity="0.3" d="M427.359 95.125C427.449 95.1197 427.537 95.0875 427.614 95.0286C427.928 94.7851 428.236 94.531 428.531 94.273C428.724 94.1038 428.743 93.8098 428.576 93.6161C428.407 93.4232 428.114 93.4025 427.921 93.571C427.64 93.8167 427.347 94.0594 427.047 94.2913C426.844 94.4483 426.807 94.7415 426.964 94.9444C427.061 95.0714 427.211 95.1334 427.36 95.1243L427.359 95.125Z" fill="#91B3FA"/>
</g>
<path d="M428.591 86.3486C428.649 86.2667 428.65 86.1573 428.591 86.0746L426.935 83.7358C427.444 82.4971 427.76 81.1681 427.85 79.7924L430.362 78.4267C430.451 78.3785 430.499 78.2797 430.482 78.1809L429.921 74.7857C429.905 74.6862 429.827 74.6089 429.729 74.592L426.912 74.1136C426.384 72.8404 425.658 71.6852 424.777 70.677L425.592 67.9271C425.62 67.8306 425.585 67.7265 425.503 67.6683L422.714 65.6657C422.633 65.6075 422.524 65.6067 422.441 65.6657L420.111 67.3269C418.876 66.8163 417.552 66.4993 416.181 66.409L414.82 63.888C414.772 63.7992 414.673 63.751 414.575 63.7679L411.192 64.3305C411.092 64.3474 411.015 64.4247 410.999 64.5235L410.522 67.3506C409.253 67.8804 408.102 68.6092 407.097 69.4927L404.357 68.6751C404.261 68.6467 404.157 68.6819 404.099 68.7639L402.103 71.5627C402.045 71.6446 402.045 71.7541 402.103 71.836L403.759 74.1748C403.25 75.4135 402.934 76.7425 402.844 78.1182L400.332 79.4839C400.243 79.5314 400.195 79.6301 400.212 79.7297L400.773 83.1249C400.79 83.2244 400.867 83.3017 400.965 83.3186L403.782 83.797C404.31 85.0702 405.037 86.2254 405.917 87.2336L405.102 89.9835C405.074 90.08 405.109 90.1841 405.191 90.2422L407.98 92.2449C408.061 92.3031 408.171 92.3039 408.253 92.2449L410.584 90.5837C411.818 91.0943 413.142 91.4113 414.513 91.5016L415.874 94.0226C415.922 94.1106 416.021 94.1596 416.119 94.1427L419.502 93.5801C419.602 93.5632 419.679 93.4859 419.696 93.3871L420.172 90.5599C421.441 90.0302 422.592 89.3014 423.597 88.4179L426.337 89.2355C426.433 89.2639 426.537 89.2287 426.595 89.1467L428.591 86.3479V86.3486Z" fill="#CF1E60"/>
<path d="M415.056 82.465C414.122 82.3877 413.274 81.949 412.669 81.2309C412.063 80.5136 411.772 79.6018 411.85 78.664C412.01 76.7295 413.707 75.2887 415.638 75.4464C417.566 75.6079 419.004 77.3128 418.843 79.2474C418.766 80.1844 418.329 81.0357 417.614 81.6436C417.032 82.1373 416.323 82.4229 415.576 82.4704C415.404 82.4811 415.23 82.4795 415.056 82.465H415.056ZM412.775 78.7413C412.717 79.4311 412.931 80.1017 413.377 80.63C413.822 81.1574 414.446 81.4805 415.133 81.5379C415.82 81.5946 416.488 81.3802 417.015 80.9331C417.541 80.4868 417.862 79.8598 417.92 79.1708C418.038 77.7476 416.98 76.4937 415.561 76.375C415.433 76.3643 415.307 76.3635 415.182 76.3712C413.927 76.4508 412.882 77.4468 412.775 78.7413Z" fill="#A9003F"/>
<path d="M415.838 87.6608C416.131 87.6424 416.426 87.608 416.721 87.5597C417.308 87.4625 417.886 87.3048 418.439 87.0912C418.464 87.0813 418.489 87.0713 418.514 87.0621C418.705 86.9863 418.819 86.7965 418.807 86.6005C418.804 86.553 418.793 86.5048 418.775 86.4581C418.681 86.2193 418.411 86.1029 418.173 86.1971C417.658 86.4015 417.119 86.5515 416.57 86.6418C416.54 86.6472 416.51 86.6518 416.48 86.6564C415.18 86.86 413.879 86.7306 412.672 86.2973C412.016 86.0623 411.389 85.737 410.805 85.3251C410.8 85.322 410.796 85.3182 410.79 85.3151C410.776 85.3044 410.761 85.2945 410.747 85.2845C409.05 84.0657 407.927 82.2575 407.586 80.192C407.542 79.9249 407.512 79.6577 407.495 79.3905C407.381 77.5953 407.882 75.8307 408.94 74.3486C410.154 72.646 411.956 71.5198 414.014 71.1776C416.071 70.8362 418.141 71.3177 419.838 72.5357C421.534 73.7545 422.657 75.5627 422.998 77.6282C423.042 77.8908 423.071 78.1549 423.088 78.419C423.161 79.5643 422.982 80.7118 422.563 81.7798C422.537 81.8456 422.527 81.9138 422.531 81.9796C422.542 82.1542 422.651 82.3149 422.824 82.3831C423.063 82.4765 423.332 82.3601 423.426 82.1205C423.896 80.9254 424.095 79.6408 424.015 78.3601C423.996 78.0646 423.963 77.7691 423.914 77.4751C423.532 75.1639 422.276 73.1405 420.378 71.7778C418.48 70.4151 416.167 69.8739 413.863 70.259C411.56 70.6417 409.545 71.9018 408.186 73.8073C407.003 75.4655 406.443 77.4399 406.569 79.4479C406.588 79.7457 406.622 80.045 406.672 80.3444C407.412 84.8183 411.423 87.944 415.84 87.6623L415.838 87.6608Z" fill="#A9003F"/>
<g clip-path="url(#clip0_2_528)">
<path d="M341.499 199.574C341.475 199.574 341.997 197.673 342.041 197.556C342.557 196.227 344.219 194.04 345.603 194.285C346.6 194.46 347.17 195.655 346.96 196.771C346.747 197.907 345.779 198.741 344.937 199.171C343.948 199.677 341.502 199.571 341.502 199.571L341.499 199.574Z" fill="#C83F72"/>
<path d="M336.924 235.415C335.866 236.755 334.973 237.967 334.268 238.952L333.207 238.714C333.987 237.657 335.038 236.276 336.322 234.719C336.783 234.158 337.288 233.569 337.81 232.97C337.707 232.798 337.13 231.81 336.687 230.808C335.673 231.09 333.647 230.756 333.386 230.711C333.269 231.482 333.159 232.233 333.066 232.943C332.764 235.202 332.578 237.123 332.455 238.545L331.538 238.339C331.685 236.91 331.909 234.995 332.252 232.75C332.369 231.968 332.51 231.135 332.657 230.281C332.407 230.16 330.366 229.148 329.645 228.256C328.992 227.447 328.343 226.203 328.481 225.046C328.618 223.913 329.497 223.087 330.469 223.411C331.819 223.858 332.712 226.692 332.798 228.177C332.802 228.263 332.771 229.217 332.74 229.819C332.802 229.471 332.86 229.13 332.929 228.776C333.059 228.066 333.207 227.367 333.365 226.61C333.451 226.248 333.54 225.883 333.626 225.515C333.709 225.146 333.832 224.771 333.935 224.396C334.189 223.531 334.481 222.67 334.791 221.813C334.268 221.654 332.417 221.066 331.668 220.377C330.923 219.692 330.126 218.572 330.116 217.402C330.105 216.251 330.864 215.27 331.864 215.415C333.248 215.614 334.488 218.266 334.76 219.726C334.777 219.816 334.873 220.886 334.918 221.472C335.107 220.959 335.295 220.442 335.502 219.933C336.099 218.455 336.742 216.981 337.377 215.511C337.573 215.06 337.762 214.609 337.954 214.158C337.769 214.103 335.556 213.459 334.718 212.687C333.973 212.002 333.176 210.883 333.166 209.712C333.156 208.562 333.918 207.58 334.914 207.725C336.298 207.925 337.538 210.576 337.81 212.036C337.83 212.147 337.968 213.682 337.988 214.075C338.411 213.08 338.82 212.085 339.194 211.079C339.709 209.695 340.149 208.3 340.492 206.912C340.407 206.888 338.098 206.227 337.236 205.435C336.491 204.75 335.694 203.631 335.684 202.46C335.673 201.31 336.432 200.328 337.432 200.473C338.816 200.673 340.056 203.324 340.328 204.784C340.345 204.881 340.451 206.051 340.492 206.609C340.537 206.616 340.527 206.613 340.571 206.62C340.922 205.125 341.104 203.617 341.214 202.191C341.279 201.368 341.303 200.573 341.313 199.801C340.874 199.729 338.868 199.381 338.033 198.768C337.233 198.183 336.34 197.174 336.219 196.003C336.103 194.86 336.766 193.778 337.769 193.792C339.16 193.809 340.63 196.292 341.035 197.711C341.056 197.787 341.207 198.599 341.31 199.192C341.31 198.844 341.313 198.482 341.31 198.148C341.289 196.891 341.207 195.738 341.124 194.719C341.073 194.14 341.021 193.617 340.963 193.128C340.554 192.79 338.926 191.409 338.418 190.431C337.92 189.477 337.507 188.103 337.851 187.019C338.188 185.955 339.204 185.38 340.101 185.941C341.348 186.723 341.715 189.701 341.533 191.161C341.516 191.289 341.08 193.221 341.056 193.203L341.032 193.183C341.093 193.651 341.155 194.157 341.21 194.708C341.31 195.728 341.413 196.881 341.458 198.145C341.502 199.405 341.523 200.776 341.437 202.219C341.351 203.665 341.197 205.177 340.87 206.706C340.867 206.723 340.86 206.74 340.856 206.757C341.069 206.351 341.698 205.235 341.753 205.156C342.55 204.047 344.649 202.48 345.94 203.152C346.871 203.634 347.159 204.96 346.709 205.958C346.253 206.978 345.126 207.47 344.209 207.615C343.175 207.78 340.987 206.988 340.812 206.926C340.489 208.379 340.06 209.833 339.555 211.275C339.266 212.098 338.957 212.918 338.634 213.734C338.826 213.39 339.002 213.083 339.033 213.042C339.829 211.933 341.928 210.366 343.22 211.038C344.151 211.52 344.439 212.846 343.989 213.844C343.532 214.864 342.406 215.356 341.488 215.501C340.558 215.649 338.682 215.019 338.188 214.846C338.06 215.156 337.94 215.47 337.813 215.78C337.205 217.271 336.59 218.755 336.027 220.236C335.828 220.756 335.649 221.279 335.467 221.802C335.639 221.496 335.787 221.241 335.814 221.203C336.611 220.094 338.71 218.528 340.001 219.199C340.932 219.681 341.221 221.007 340.771 222.006C340.314 223.025 339.187 223.517 338.27 223.662C337.384 223.803 335.646 223.242 335.058 223.039C334.887 223.579 334.715 224.123 334.567 224.657C334.474 225.026 334.365 225.374 334.289 225.749C334.207 226.121 334.128 226.486 334.045 226.851C333.915 227.56 333.774 228.287 333.657 228.982C333.575 229.465 333.502 229.926 333.43 230.391C333.623 229.867 334.018 228.858 334.059 228.776C334.485 227.949 335.453 226.82 336.453 226.279C336.515 226.155 336.587 226.042 336.669 225.935C337.308 225.098 338.438 225.002 339.118 225.907C340.06 227.164 339.513 230.071 338.899 231.338C338.864 231.414 338.394 232.168 338.091 232.64C338.304 232.395 338.51 232.157 338.734 231.909C339.173 231.417 339.623 230.942 340.104 230.425C340.345 230.188 340.589 229.947 340.832 229.706C341.073 229.458 341.351 229.234 341.612 228.996C342.227 228.456 342.873 227.946 343.532 227.45C343.161 226.978 341.859 225.277 341.54 224.216C341.224 223.163 341.059 221.727 341.595 220.759C342.117 219.812 343.216 219.512 343.999 220.291C345.085 221.369 344.913 224.351 344.473 225.721C344.446 225.807 344.034 226.744 343.8 227.254C344.199 226.958 344.597 226.661 345.009 226.382C346.201 225.57 347.427 224.788 348.647 224.006C349.021 223.765 349.392 223.521 349.763 223.28C349.629 223.115 348.046 221.128 347.688 219.943C347.372 218.889 347.208 217.453 347.743 216.486C348.265 215.539 349.365 215.239 350.148 216.017C351.233 217.095 351.061 220.081 350.622 221.451C350.587 221.555 349.997 222.901 349.832 223.235C350.649 222.698 351.46 222.157 352.24 221.582C353.318 220.79 354.335 219.943 355.269 219.03C355.207 218.955 353.548 216.892 353.181 215.676C352.865 214.623 352.7 213.187 353.236 212.219C353.758 211.275 354.86 210.972 355.64 211.751C356.726 212.828 356.554 215.811 356.114 217.181C356.087 217.271 355.633 218.3 355.41 218.782C355.444 218.817 355.437 218.81 355.472 218.844C356.461 217.853 357.313 216.74 358.065 215.649C358.501 215.019 358.89 214.385 359.254 213.758C358.914 213.41 357.368 211.802 356.939 210.752C356.526 209.743 356.234 208.331 356.674 207.298C357.103 206.286 358.168 205.841 359.013 206.513C360.188 207.446 360.294 210.442 359.982 211.868C359.965 211.947 359.717 212.708 359.532 213.259C359.693 212.973 359.862 212.68 360.013 212.405C360.576 211.365 361.036 210.37 361.442 209.481C361.668 208.975 361.861 208.51 362.039 208.076C361.847 207.532 361.102 205.328 361.119 204.195C361.136 203.087 361.418 201.692 362.211 201.034C362.991 200.387 364.121 200.586 364.622 201.637C365.323 203.1 364.258 205.776 363.43 206.847C363.358 206.94 362.091 208.231 362.081 208.204C362.081 208.204 362.07 208.176 362.07 208.169C361.905 208.593 361.723 209.047 361.517 209.536C361.129 210.435 360.686 211.448 360.14 212.508C359.597 213.569 358.979 214.702 358.24 215.824C357.498 216.95 356.671 218.083 355.685 219.12C355.675 219.13 355.661 219.141 355.65 219.154C356.018 218.962 357.069 218.466 357.151 218.438C358.343 218.056 360.851 218.163 361.641 219.561C362.208 220.57 361.844 221.84 360.999 222.36C360.136 222.894 358.955 222.553 358.106 222.068C357.151 221.52 355.654 219.43 355.534 219.265C354.589 220.239 353.548 221.145 352.453 221.988C351.827 222.474 351.185 222.935 350.533 223.39C350.855 223.235 351.147 223.101 351.189 223.087C352.38 222.705 354.888 222.811 355.678 224.21C356.245 225.215 355.881 226.489 355.036 227.009C354.173 227.543 352.992 227.202 352.143 226.717C351.285 226.224 349.976 224.471 349.636 224.003C349.385 224.175 349.135 224.347 348.884 224.519C347.678 225.336 346.469 226.145 345.305 226.982C344.896 227.278 344.501 227.584 344.106 227.891C344.394 227.753 344.638 227.643 344.676 227.629C345.868 227.247 348.375 227.354 349.165 228.752C349.732 229.761 349.368 231.031 348.523 231.551C347.661 232.082 346.479 231.741 345.631 231.259C344.81 230.79 343.594 229.186 343.185 228.631C342.79 228.962 342.392 229.289 342.021 229.63C341.774 229.871 341.516 230.081 341.279 230.339C341.039 230.587 340.802 230.835 340.565 231.08C340.125 231.572 339.668 232.075 339.249 232.567C338.957 232.908 338.682 233.239 338.404 233.569C338.809 233.27 339.613 232.705 339.685 232.667C340.808 232.071 343.288 231.724 344.243 232.97C344.93 233.869 344.731 235.198 343.968 235.866C343.189 236.551 341.98 236.427 341.087 236.097C340.101 235.735 338.425 234.01 338.215 233.793C337.758 234.344 337.319 234.885 336.91 235.405L336.924 235.415Z" fill="#C83F72"/>
<path d="M362.627 215.649C361.552 215.408 359.518 213.714 359.518 213.71C359.498 213.693 360.82 212.484 360.909 212.419C361.964 211.671 364.385 210.983 365.45 212.095C366.216 212.894 366.148 214.247 365.457 215.022C364.75 215.811 363.544 215.855 362.627 215.649Z" fill="#C83F72"/>
<g opacity="0.5">
<path opacity="0.5" d="M341.499 199.574C341.475 199.574 341.997 197.673 342.041 197.556C342.557 196.227 344.219 194.04 345.603 194.285C346.6 194.46 347.17 195.655 346.96 196.771C346.747 197.907 345.779 198.741 344.937 199.171C343.948 199.677 341.502 199.571 341.502 199.571L341.499 199.574Z" fill="white"/>
<path opacity="0.5" d="M336.924 235.415C335.866 236.755 334.973 237.967 334.268 238.952L333.207 238.714C333.987 237.657 335.038 236.276 336.322 234.719C336.783 234.158 337.288 233.569 337.81 232.97C337.707 232.798 337.13 231.81 336.687 230.808C335.673 231.09 333.647 230.756 333.386 230.711C333.269 231.482 333.159 232.233 333.066 232.943C332.764 235.202 332.578 237.123 332.455 238.545L331.538 238.339C331.685 236.91 331.909 234.995 332.252 232.75C332.369 231.968 332.51 231.135 332.657 230.281C332.407 230.16 330.366 229.148 329.645 228.256C328.992 227.447 328.343 226.203 328.481 225.046C328.618 223.913 329.497 223.087 330.469 223.411C331.819 223.858 332.712 226.692 332.798 228.177C332.802 228.263 332.771 229.217 332.74 229.819C332.802 229.471 332.86 229.13 332.929 228.776C333.059 228.066 333.207 227.367 333.365 226.61C333.451 226.248 333.54 225.883 333.626 225.515C333.709 225.146 333.832 224.771 333.935 224.396C334.189 223.531 334.481 222.67 334.791 221.813C334.268 221.654 332.417 221.066 331.668 220.377C330.923 219.692 330.126 218.572 330.116 217.402C330.105 216.251 330.864 215.27 331.864 215.415C333.248 215.614 334.488 218.266 334.76 219.726C334.777 219.816 334.873 220.886 334.918 221.472C335.107 220.959 335.295 220.442 335.502 219.933C336.099 218.455 336.742 216.981 337.377 215.511C337.573 215.06 337.762 214.609 337.954 214.158C337.769 214.103 335.556 213.459 334.718 212.687C333.973 212.002 333.176 210.883 333.166 209.712C333.156 208.562 333.918 207.58 334.914 207.725C336.298 207.925 337.538 210.576 337.81 212.036C337.83 212.147 337.968 213.682 337.988 214.075C338.411 213.08 338.82 212.085 339.194 211.079C339.709 209.695 340.149 208.3 340.492 206.912C340.407 206.888 338.098 206.227 337.236 205.435C336.491 204.75 335.694 203.631 335.684 202.46C335.673 201.31 336.432 200.328 337.432 200.473C338.816 200.673 340.056 203.324 340.328 204.784C340.345 204.881 340.451 206.051 340.492 206.609C340.537 206.616 340.527 206.613 340.571 206.62C340.922 205.125 341.104 203.617 341.214 202.191C341.279 201.368 341.303 200.573 341.313 199.801C340.874 199.729 338.868 199.381 338.033 198.768C337.233 198.183 336.34 197.174 336.219 196.003C336.103 194.86 336.766 193.778 337.769 193.792C339.16 193.809 340.63 196.292 341.035 197.711C341.056 197.787 341.207 198.599 341.31 199.192C341.31 198.844 341.313 198.482 341.31 198.148C341.289 196.891 341.207 195.738 341.124 194.719C341.073 194.14 341.021 193.617 340.963 193.128C340.554 192.79 338.926 191.409 338.418 190.431C337.92 189.477 337.507 188.103 337.851 187.019C338.188 185.955 339.204 185.38 340.101 185.941C341.348 186.723 341.715 189.701 341.533 191.161C341.516 191.289 341.08 193.221 341.056 193.203L341.032 193.183C341.093 193.651 341.155 194.157 341.21 194.708C341.31 195.728 341.413 196.881 341.458 198.145C341.502 199.405 341.523 200.776 341.437 202.219C341.351 203.665 341.197 205.177 340.87 206.706C340.867 206.723 340.86 206.74 340.856 206.757C341.069 206.351 341.698 205.235 341.753 205.156C342.55 204.047 344.649 202.48 345.94 203.152C346.871 203.634 347.159 204.96 346.709 205.958C346.253 206.978 345.126 207.47 344.209 207.615C343.175 207.78 340.987 206.988 340.812 206.926C340.489 208.379 340.06 209.833 339.555 211.275C339.266 212.098 338.957 212.918 338.634 213.734C338.826 213.39 339.002 213.083 339.033 213.042C339.829 211.933 341.928 210.366 343.22 211.038C344.151 211.52 344.439 212.846 343.989 213.844C343.532 214.864 342.406 215.356 341.488 215.501C340.558 215.649 338.682 215.019 338.188 214.846C338.06 215.156 337.94 215.47 337.813 215.78C337.205 217.271 336.59 218.755 336.027 220.236C335.828 220.756 335.649 221.279 335.467 221.802C335.639 221.496 335.787 221.241 335.814 221.203C336.611 220.094 338.71 218.528 340.001 219.199C340.932 219.681 341.221 221.007 340.771 222.006C340.314 223.025 339.187 223.517 338.27 223.662C337.384 223.803 335.646 223.242 335.058 223.039C334.887 223.579 334.715 224.123 334.567 224.657C334.474 225.026 334.365 225.374 334.289 225.749C334.207 226.121 334.128 226.486 334.045 226.851C333.915 227.56 333.774 228.287 333.657 228.982C333.575 229.465 333.502 229.926 333.43 230.391C333.623 229.867 334.018 228.858 334.059 228.776C334.485 227.949 335.453 226.82 336.453 226.279C336.515 226.155 336.587 226.042 336.669 225.935C337.308 225.098 338.438 225.002 339.118 225.907C340.06 227.164 339.513 230.071 338.899 231.338C338.864 231.414 338.394 232.168 338.091 232.64C338.304 232.395 338.51 232.157 338.734 231.909C339.173 231.417 339.623 230.942 340.104 230.425C340.345 230.188 340.589 229.947 340.832 229.706C341.073 229.458 341.351 229.234 341.612 228.996C342.227 228.456 342.873 227.946 343.532 227.45C343.161 226.978 341.859 225.277 341.54 224.216C341.224 223.163 341.059 221.727 341.595 220.759C342.117 219.812 343.216 219.512 343.999 220.291C345.085 221.369 344.913 224.351 344.473 225.721C344.446 225.807 344.034 226.744 343.8 227.254C344.199 226.958 344.597 226.661 345.009 226.382C346.201 225.57 347.427 224.788 348.647 224.006C349.021 223.765 349.392 223.521 349.763 223.28C349.629 223.115 348.046 221.128 347.688 219.943C347.372 218.889 347.208 217.453 347.743 216.486C348.265 215.539 349.365 215.239 350.148 216.017C351.233 217.095 351.061 220.081 350.622 221.451C350.587 221.555 349.997 222.901 349.832 223.235C350.649 222.698 351.46 222.157 352.24 221.582C353.318 220.79 354.335 219.943 355.269 219.03C355.207 218.955 353.548 216.892 353.181 215.676C352.865 214.623 352.7 213.187 353.236 212.219C353.758 211.275 354.86 210.972 355.64 211.751C356.726 212.828 356.554 215.811 356.114 217.181C356.087 217.271 355.633 218.3 355.41 218.782C355.444 218.817 355.437 218.81 355.472 218.844C356.461 217.853 357.313 216.74 358.065 215.649C358.501 215.019 358.89 214.385 359.254 213.758C358.914 213.41 357.368 211.802 356.939 210.752C356.526 209.743 356.234 208.331 356.674 207.298C357.103 206.286 358.168 205.841 359.013 206.513C360.188 207.446 360.294 210.442 359.982 211.868C359.965 211.947 359.717 212.708 359.532 213.259C359.693 212.973 359.862 212.68 360.013 212.405C360.576 211.365 361.036 210.37 361.442 209.481C361.668 208.975 361.861 208.51 362.039 208.076C361.847 207.532 361.102 205.328 361.119 204.195C361.136 203.087 361.418 201.692 362.211 201.034C362.991 200.387 364.121 200.586 364.622 201.637C365.323 203.1 364.258 205.776 363.43 206.847C363.358 206.94 362.091 208.231 362.081 208.204C362.081 208.204 362.07 208.176 362.07 208.169C361.905 208.593 361.723 209.047 361.517 209.536C361.129 210.435 360.686 211.448 360.14 212.508C359.597 213.569 358.979 214.702 358.24 215.824C357.498 216.95 356.671 218.083 355.685 219.12C355.675 219.13 355.661 219.141 355.65 219.154C356.018 218.962 357.069 218.466 357.151 218.438C358.343 218.056 360.851 218.163 361.641 219.561C362.208 220.57 361.844 221.84 360.999 222.36C360.136 222.894 358.955 222.553 358.106 222.068C357.151 221.52 355.654 219.43 355.534 219.265C354.589 220.239 353.548 221.145 352.453 221.988C351.827 222.474 351.185 222.935 350.533 223.39C350.855 223.235 351.147 223.101 351.189 223.087C352.38 222.705 354.888 222.811 355.678 224.21C356.245 225.215 355.881 226.489 355.036 227.009C354.173 227.543 352.992 227.202 352.143 226.717C351.285 226.224 349.976 224.471 349.636 224.003C349.385 224.175 349.135 224.347 348.884 224.519C347.678 225.336 346.469 226.145 345.305 226.982C344.896 227.278 344.501 227.584 344.106 227.891C344.394 227.753 344.638 227.643 344.676 227.629C345.868 227.247 348.375 227.354 349.165 228.752C349.732 229.761 349.368 231.031 348.523 231.551C347.661 232.082 346.479 231.741 345.631 231.259C344.81 230.79 343.594 229.186 343.185 228.631C342.79 228.962 342.392 229.289 342.021 229.63C341.774 229.871 341.516 230.081 341.279 230.339C341.039 230.587 340.802 230.835 340.565 231.08C340.125 231.572 339.668 232.075 339.249 232.567C338.957 232.908 338.682 233.239 338.404 233.569C338.809 233.27 339.613 232.705 339.685 232.667C340.808 232.071 343.288 231.724 344.243 232.97C344.93 233.869 344.731 235.198 343.968 235.866C343.189 236.551 341.98 236.427 341.087 236.097C340.101 235.735 338.425 234.01 338.215 233.793C337.758 234.344 337.319 234.885 336.91 235.405L336.924 235.415Z" fill="white"/>
<path opacity="0.5" d="M362.627 215.649C361.552 215.408 359.518 213.714 359.518 213.71C359.498 213.693 360.82 212.484 360.909 212.419C361.964 211.671 364.385 210.983 365.45 212.095C366.216 212.894 366.148 214.247 365.457 215.022C364.75 215.811 363.544 215.855 362.627 215.649Z" fill="white"/>
</g>
</g>
<path d="M323 237.587L342.794 237.245L338.357 253.967H328.119L323 237.587Z" fill="#263238"/>
<g clip-path="url(#clip1_2_528)">
<path d="M88.8967 175.021C88.9319 175.021 88.167 172.236 88.1016 172.064C87.3467 170.117 84.911 166.913 82.8829 167.271C81.4234 167.529 80.5881 169.279 80.895 170.914C81.2071 172.579 82.6262 173.8 83.8592 174.43C85.3085 175.172 88.8917 175.016 88.8917 175.016L88.8967 175.021Z" fill="#B60044"/>
<path d="M95.6 227.532C97.15 229.495 98.4584 231.271 99.4901 232.714L101.045 232.365C99.9027 230.817 98.3628 228.793 96.4807 226.513C95.8063 225.691 95.0665 224.828 94.3016 223.95C94.4526 223.698 95.298 222.25 95.9472 220.781C97.4318 221.195 100.401 220.706 100.783 220.64C100.955 221.77 101.116 222.87 101.251 223.91C101.694 227.219 101.966 230.035 102.147 232.118L103.491 231.815C103.275 229.722 102.947 226.917 102.444 223.627C102.273 222.482 102.067 221.261 101.85 220.01C102.218 219.833 105.207 218.35 106.264 217.043C107.22 215.857 108.171 214.036 107.97 212.341C107.769 210.681 106.48 209.47 105.056 209.944C103.078 210.6 101.77 214.752 101.644 216.927C101.639 217.053 101.684 218.451 101.73 219.333C101.639 218.824 101.553 218.324 101.453 217.805C101.262 216.765 101.045 215.741 100.814 214.631C100.688 214.102 100.557 213.567 100.431 213.027C100.31 212.487 100.129 211.937 99.9782 211.387C99.6058 210.121 99.1781 208.859 98.7251 207.603C99.4901 207.371 102.203 206.508 103.3 205.499C104.392 204.495 105.559 202.856 105.574 201.14C105.589 199.455 104.477 198.017 103.013 198.229C100.985 198.522 99.168 202.407 98.7704 204.546C98.7453 204.677 98.6044 206.246 98.5389 207.104C98.2621 206.352 97.9854 205.595 97.6834 204.848C96.8078 202.684 95.8667 200.525 94.9357 198.37C94.6488 197.709 94.372 197.048 94.0902 196.388C94.362 196.307 97.6029 195.363 98.8308 194.233C99.9229 193.229 101.09 191.589 101.106 189.874C101.121 188.189 100.003 186.751 98.544 186.963C96.5159 187.256 94.6992 191.14 94.3016 193.28C94.2714 193.441 94.0701 195.691 94.0399 196.266C93.4209 194.808 92.822 193.35 92.2735 191.877C91.5186 189.849 90.8745 187.806 90.3712 185.772C90.497 185.737 93.8789 184.768 95.142 183.608C96.2341 182.604 97.4016 180.964 97.4167 179.249C97.4318 177.564 96.3196 176.126 94.8552 176.338C92.8271 176.63 91.0103 180.515 90.6128 182.654C90.5876 182.796 90.4316 184.511 90.3712 185.328C90.3058 185.338 90.3209 185.333 90.2555 185.343C89.7422 183.154 89.4754 180.944 89.3144 178.855C89.2188 177.649 89.1836 176.484 89.1685 175.354C89.8126 175.248 92.7516 174.738 93.9745 173.84C95.147 172.982 96.4555 171.504 96.6316 169.789C96.8027 168.114 95.8315 166.53 94.362 166.55C92.3238 166.575 90.1699 170.213 89.5761 172.291C89.5459 172.402 89.3245 173.593 89.1735 174.461C89.1735 173.951 89.1685 173.421 89.1735 172.932C89.2037 171.091 89.3245 169.4 89.4452 167.907C89.5207 167.059 89.5962 166.292 89.6818 165.576C90.2806 165.082 92.666 163.058 93.4108 161.626C94.1405 160.228 94.7444 158.215 94.2412 156.626C93.748 155.067 92.2584 154.224 90.9449 155.047C89.1181 156.192 88.5797 160.556 88.8464 162.695C88.8715 162.882 89.5107 165.712 89.5459 165.687L89.5811 165.657C89.4905 166.343 89.3999 167.085 89.3194 167.892C89.1735 169.385 89.0225 171.075 88.9571 172.927C88.8917 174.774 88.8615 176.782 88.9873 178.896C89.1131 181.015 89.3396 183.229 89.8176 185.47C89.8227 185.495 89.8327 185.52 89.8378 185.545C89.5258 184.95 88.6048 183.315 88.5243 183.199C87.3568 181.575 84.2819 179.279 82.3897 180.263C81.0259 180.969 80.6032 182.912 81.2624 184.375C81.9317 185.868 83.5824 186.59 84.9261 186.802C86.4409 187.044 89.6465 185.883 89.9032 185.792C90.3763 187.922 91.0053 190.051 91.7451 192.165C92.1678 193.37 92.6207 194.571 93.0938 195.767C92.812 195.262 92.5553 194.813 92.51 194.753C91.3425 193.128 88.2676 190.833 86.3754 191.817C85.0116 192.523 84.5889 194.465 85.2482 195.928C85.9175 197.422 87.5681 198.143 88.9118 198.355C90.2756 198.572 93.0233 197.649 93.748 197.397C93.9342 197.851 94.1104 198.31 94.2966 198.764C95.1873 200.948 96.0881 203.123 96.9134 205.292C97.2053 206.054 97.467 206.821 97.7337 207.588C97.4821 207.139 97.2657 206.766 97.2255 206.71C96.0579 205.086 92.9831 202.79 91.0909 203.774C89.7271 204.48 89.3043 206.423 89.9636 207.886C90.6329 209.379 92.2836 210.101 93.6272 210.313C94.9256 210.519 97.4721 209.697 98.3326 209.399C98.5842 210.191 98.8359 210.989 99.0523 211.771C99.1881 212.31 99.3492 212.82 99.4599 213.37C99.5807 213.915 99.6964 214.45 99.8172 214.984C100.008 216.024 100.215 217.088 100.386 218.107C100.507 218.814 100.612 219.49 100.718 220.171C100.436 219.404 99.8574 217.926 99.7971 217.805C99.173 216.594 97.7539 214.939 96.2894 214.147C96.1988 213.965 96.0932 213.799 95.9724 213.642C95.0363 212.416 93.3806 212.275 92.3842 213.602C91.0053 215.444 91.8055 219.702 92.7063 221.558C92.7566 221.669 93.4461 222.774 93.8889 223.466C93.5769 223.107 93.275 222.759 92.9478 222.396C92.3037 221.674 91.6444 220.978 90.9399 220.221C90.5876 219.873 90.2303 219.52 89.873 219.167C89.5207 218.804 89.1131 218.476 88.7306 218.128C87.8298 217.336 86.8837 216.589 85.9175 215.862C86.461 215.171 88.3683 212.679 88.8363 211.125C89.2993 209.581 89.5409 207.477 88.7558 206.059C87.9909 204.672 86.3805 204.233 85.2331 205.373C83.6428 206.952 83.8944 211.322 84.5386 213.33C84.5788 213.456 85.1827 214.828 85.5249 215.575C84.9412 215.141 84.3574 214.707 83.7535 214.298C82.0072 213.108 80.2106 211.962 78.4241 210.817C77.8756 210.464 77.3321 210.106 76.7886 209.752C76.9848 209.51 79.3048 206.599 79.8282 204.864C80.2912 203.32 80.5327 201.216 79.7477 199.798C78.9827 198.411 77.3723 197.972 76.2249 199.112C74.6347 200.691 74.8863 205.065 75.5304 207.073C75.5808 207.225 76.4463 209.198 76.6879 209.687C75.4902 208.9 74.3025 208.108 73.1601 207.265C71.5799 206.105 70.0903 204.864 68.7215 203.527C68.8121 203.416 71.2428 200.393 71.7812 198.613C72.2442 197.069 72.4858 194.965 71.7007 193.547C70.9358 192.165 69.3203 191.721 68.178 192.861C66.5877 194.44 66.8393 198.809 67.4835 200.817C67.5238 200.948 68.188 202.457 68.5152 203.163C68.4648 203.214 68.4749 203.204 68.4246 203.254C66.9752 201.801 65.7272 200.172 64.625 198.572C63.9859 197.649 63.4172 196.721 62.8838 195.802C63.382 195.293 65.6466 192.937 66.2757 191.398C66.8796 189.919 67.3074 187.851 66.6632 186.337C66.0341 184.854 64.4741 184.203 63.2361 185.187C61.515 186.554 61.359 190.944 61.8169 193.032C61.8421 193.148 62.2044 194.263 62.4762 195.071C62.2396 194.652 61.9931 194.223 61.7716 193.819C60.9463 192.296 60.2719 190.838 59.6781 189.536C59.346 188.794 59.0641 188.113 58.8025 187.478C59.0843 186.68 60.1763 183.451 60.1512 181.792C60.126 180.167 59.7133 178.124 58.5508 177.16C57.4085 176.211 55.7528 176.504 55.018 178.043C53.9914 180.187 55.5515 184.107 56.7643 185.676C56.87 185.813 58.727 187.705 58.7421 187.664C58.7421 187.664 58.7572 187.624 58.7572 187.614C58.9987 188.234 59.2654 188.9 59.5674 189.617C60.1361 190.934 60.7853 192.417 61.5854 193.971C62.3806 195.525 63.2864 197.185 64.3684 198.829C65.4554 200.479 66.6682 202.139 68.1126 203.658C68.1277 203.673 68.1478 203.688 68.1629 203.708C67.6244 203.426 66.0845 202.699 65.9637 202.659C64.2174 202.099 60.5437 202.255 59.3862 204.304C58.5559 205.782 59.0893 207.644 60.3273 208.405C61.5905 209.187 63.3216 208.688 64.5647 207.977C65.9637 207.174 68.1578 204.112 68.334 203.87C69.7179 205.298 71.2428 206.624 72.8481 207.861C73.764 208.572 74.7051 209.248 75.6613 209.914C75.1882 209.687 74.7605 209.49 74.7001 209.47C72.9538 208.91 69.2801 209.066 68.1226 211.115C67.2923 212.588 67.8257 214.455 69.0637 215.217C70.3268 215.999 72.058 215.499 73.301 214.788C74.5592 214.066 76.4765 211.498 76.9748 210.812C77.3421 211.064 77.7095 211.317 78.0769 211.569C79.8433 212.765 81.6147 213.95 83.3207 215.176C83.9196 215.61 84.4983 216.059 85.0771 216.508C84.6543 216.306 84.297 216.145 84.2417 216.125C82.4954 215.565 78.8217 215.721 77.6642 217.769C76.8338 219.248 77.3673 221.109 78.6053 221.871C79.8684 222.648 81.5996 222.149 82.8426 221.442C84.0454 220.756 85.8269 218.405 86.4258 217.593C87.0045 218.077 87.5883 218.556 88.1318 219.056C88.4941 219.409 88.8715 219.717 89.2188 220.095C89.5711 220.459 89.9183 220.822 90.2655 221.18C90.9097 221.902 91.579 222.638 92.193 223.36C92.6207 223.859 93.0233 224.343 93.431 224.828C92.8371 224.389 91.6595 223.561 91.5539 223.506C89.9082 222.633 86.2748 222.124 84.8758 223.95C83.8693 225.267 84.1611 227.214 85.2783 228.193C86.4207 229.197 88.1922 229.015 89.5006 228.531C90.9449 228.001 93.4008 225.474 93.7078 225.156C94.3771 225.963 95.0212 226.755 95.6201 227.517L95.6 227.532Z" fill="#B60044"/>
<path d="M57.9419 198.572C59.5171 198.219 62.4963 195.737 62.4963 195.732C62.5265 195.706 60.589 193.936 60.4581 193.84C58.9132 192.745 55.3653 191.736 53.8052 193.365C52.6829 194.536 52.7836 196.519 53.7951 197.654C54.8318 198.809 56.5982 198.875 57.9419 198.572Z" fill="#B60044"/>
<g opacity="0.5">
<path opacity="0.5" d="M88.8967 175.021C88.9319 175.021 88.167 172.236 88.1016 172.064C87.3467 170.117 84.911 166.913 82.8829 167.271C81.4234 167.529 80.5881 169.279 80.895 170.914C81.2071 172.579 82.6262 173.8 83.8592 174.43C85.3085 175.172 88.8917 175.016 88.8917 175.016L88.8967 175.021Z" fill="white"/>
<path opacity="0.5" d="M95.6 227.532C97.15 229.495 98.4584 231.271 99.4901 232.714L101.045 232.365C99.9027 230.817 98.3628 228.793 96.4807 226.513C95.8063 225.691 95.0665 224.828 94.3016 223.95C94.4526 223.698 95.298 222.25 95.9472 220.781C97.4318 221.195 100.401 220.706 100.783 220.64C100.955 221.77 101.116 222.87 101.251 223.91C101.694 227.219 101.966 230.035 102.147 232.118L103.491 231.815C103.275 229.722 102.947 226.917 102.444 223.627C102.273 222.482 102.067 221.261 101.85 220.01C102.218 219.833 105.207 218.35 106.264 217.043C107.22 215.857 108.171 214.036 107.97 212.341C107.769 210.681 106.48 209.47 105.056 209.944C103.078 210.6 101.77 214.752 101.644 216.927C101.639 217.053 101.684 218.451 101.73 219.333C101.639 218.824 101.553 218.324 101.453 217.805C101.262 216.765 101.045 215.741 100.814 214.631C100.688 214.102 100.557 213.567 100.431 213.027C100.31 212.487 100.129 211.937 99.9782 211.387C99.6058 210.121 99.1781 208.859 98.7251 207.603C99.4901 207.371 102.203 206.508 103.3 205.499C104.392 204.495 105.559 202.856 105.574 201.14C105.589 199.455 104.477 198.017 103.013 198.229C100.985 198.522 99.168 202.407 98.7704 204.546C98.7453 204.677 98.6044 206.246 98.5389 207.104C98.2621 206.352 97.9854 205.595 97.6834 204.848C96.8078 202.684 95.8667 200.525 94.9357 198.37C94.6488 197.709 94.372 197.048 94.0902 196.388C94.362 196.307 97.6029 195.363 98.8308 194.233C99.9229 193.229 101.09 191.589 101.106 189.874C101.121 188.189 100.003 186.751 98.544 186.963C96.5159 187.256 94.6992 191.14 94.3016 193.28C94.2714 193.441 94.0701 195.691 94.0399 196.266C93.4209 194.808 92.822 193.35 92.2735 191.877C91.5186 189.849 90.8745 187.806 90.3712 185.772C90.497 185.737 93.8789 184.768 95.142 183.608C96.2341 182.604 97.4016 180.964 97.4167 179.249C97.4318 177.564 96.3196 176.126 94.8552 176.338C92.8271 176.63 91.0103 180.515 90.6128 182.654C90.5876 182.796 90.4316 184.511 90.3712 185.328C90.3058 185.338 90.3209 185.333 90.2555 185.343C89.7422 183.154 89.4754 180.944 89.3144 178.855C89.2188 177.649 89.1836 176.484 89.1685 175.354C89.8126 175.248 92.7516 174.738 93.9745 173.84C95.147 172.982 96.4555 171.504 96.6316 169.789C96.8027 168.114 95.8315 166.53 94.362 166.55C92.3238 166.575 90.1699 170.213 89.5761 172.291C89.5459 172.402 89.3245 173.593 89.1735 174.461C89.1735 173.951 89.1685 173.421 89.1735 172.932C89.2037 171.091 89.3245 169.4 89.4452 167.907C89.5207 167.059 89.5962 166.292 89.6818 165.576C90.2806 165.082 92.666 163.058 93.4108 161.626C94.1405 160.228 94.7444 158.215 94.2412 156.626C93.748 155.067 92.2584 154.224 90.9449 155.047C89.1181 156.192 88.5797 160.556 88.8464 162.695C88.8715 162.882 89.5107 165.712 89.5459 165.687L89.5811 165.657C89.4905 166.343 89.3999 167.085 89.3194 167.892C89.1735 169.385 89.0225 171.075 88.9571 172.927C88.8917 174.774 88.8615 176.782 88.9873 178.896C89.1131 181.015 89.3396 183.229 89.8176 185.47C89.8227 185.495 89.8327 185.52 89.8378 185.545C89.5258 184.95 88.6048 183.315 88.5243 183.199C87.3568 181.575 84.2819 179.279 82.3897 180.263C81.0259 180.969 80.6032 182.912 81.2624 184.375C81.9317 185.868 83.5824 186.59 84.9261 186.802C86.4409 187.044 89.6465 185.883 89.9032 185.792C90.3763 187.922 91.0053 190.051 91.7451 192.165C92.1678 193.37 92.6207 194.571 93.0938 195.767C92.812 195.262 92.5553 194.813 92.51 194.753C91.3425 193.128 88.2676 190.833 86.3754 191.817C85.0116 192.523 84.5889 194.465 85.2482 195.928C85.9175 197.422 87.5681 198.143 88.9118 198.355C90.2756 198.572 93.0233 197.649 93.748 197.397C93.9342 197.851 94.1104 198.31 94.2966 198.764C95.1873 200.948 96.0881 203.123 96.9134 205.292C97.2053 206.054 97.467 206.821 97.7337 207.588C97.4821 207.139 97.2657 206.766 97.2255 206.71C96.0579 205.086 92.9831 202.79 91.0909 203.774C89.7271 204.48 89.3043 206.423 89.9636 207.886C90.6329 209.379 92.2836 210.101 93.6272 210.313C94.9256 210.519 97.4721 209.697 98.3326 209.399C98.5842 210.191 98.8359 210.989 99.0523 211.771C99.1881 212.31 99.3492 212.82 99.4599 213.37C99.5807 213.915 99.6964 214.45 99.8172 214.984C100.008 216.024 100.215 217.088 100.386 218.107C100.507 218.814 100.612 219.49 100.718 220.171C100.436 219.404 99.8574 217.926 99.7971 217.805C99.173 216.594 97.7539 214.939 96.2894 214.147C96.1988 213.965 96.0932 213.799 95.9724 213.642C95.0363 212.416 93.3806 212.275 92.3842 213.602C91.0053 215.444 91.8055 219.702 92.7063 221.558C92.7566 221.669 93.4461 222.774 93.8889 223.466C93.5769 223.107 93.275 222.759 92.9478 222.396C92.3037 221.674 91.6444 220.978 90.9399 220.221C90.5876 219.873 90.2303 219.52 89.873 219.167C89.5207 218.804 89.1131 218.476 88.7306 218.128C87.8298 217.336 86.8837 216.589 85.9175 215.862C86.461 215.171 88.3683 212.679 88.8363 211.125C89.2993 209.581 89.5409 207.477 88.7558 206.059C87.9909 204.672 86.3805 204.233 85.2331 205.373C83.6428 206.952 83.8944 211.322 84.5386 213.33C84.5788 213.456 85.1827 214.828 85.5249 215.575C84.9412 215.141 84.3574 214.707 83.7535 214.298C82.0072 213.108 80.2106 211.962 78.4241 210.817C77.8756 210.464 77.3321 210.106 76.7886 209.752C76.9848 209.51 79.3048 206.599 79.8282 204.864C80.2912 203.32 80.5327 201.216 79.7477 199.798C78.9827 198.411 77.3723 197.972 76.2249 199.112C74.6347 200.691 74.8863 205.065 75.5304 207.073C75.5808 207.225 76.4463 209.198 76.6879 209.687C75.4902 208.9 74.3025 208.108 73.1601 207.265C71.5799 206.105 70.0903 204.864 68.7215 203.527C68.8121 203.416 71.2428 200.393 71.7812 198.613C72.2442 197.069 72.4858 194.965 71.7007 193.547C70.9358 192.165 69.3203 191.721 68.178 192.861C66.5877 194.44 66.8393 198.809 67.4835 200.817C67.5238 200.948 68.188 202.457 68.5152 203.163C68.4648 203.214 68.4749 203.204 68.4246 203.254C66.9752 201.801 65.7272 200.172 64.625 198.572C63.9859 197.649 63.4172 196.721 62.8838 195.802C63.382 195.293 65.6466 192.937 66.2757 191.398C66.8796 189.919 67.3074 187.851 66.6632 186.337C66.0341 184.854 64.4741 184.203 63.2361 185.187C61.515 186.554 61.359 190.944 61.8169 193.032C61.8421 193.148 62.2044 194.263 62.4762 195.071C62.2396 194.652 61.9931 194.223 61.7716 193.819C60.9463 192.296 60.2719 190.838 59.6781 189.536C59.346 188.794 59.0641 188.113 58.8025 187.478C59.0843 186.68 60.1763 183.451 60.1512 181.792C60.126 180.167 59.7133 178.124 58.5508 177.16C57.4085 176.211 55.7528 176.504 55.018 178.043C53.9914 180.187 55.5515 184.107 56.7643 185.676C56.87 185.813 58.727 187.705 58.7421 187.664C58.7421 187.664 58.7572 187.624 58.7572 187.614C58.9987 188.234 59.2654 188.9 59.5674 189.617C60.1361 190.934 60.7853 192.417 61.5854 193.971C62.3806 195.525 63.2864 197.185 64.3684 198.829C65.4554 200.479 66.6682 202.139 68.1126 203.658C68.1277 203.673 68.1478 203.688 68.1629 203.708C67.6244 203.426 66.0845 202.699 65.9637 202.659C64.2174 202.099 60.5437 202.255 59.3862 204.304C58.5559 205.782 59.0893 207.644 60.3273 208.405C61.5905 209.187 63.3216 208.688 64.5647 207.977C65.9637 207.174 68.1578 204.112 68.334 203.87C69.7179 205.298 71.2428 206.624 72.8481 207.861C73.764 208.572 74.7051 209.248 75.6613 209.914C75.1882 209.687 74.7605 209.49 74.7001 209.47C72.9538 208.91 69.2801 209.066 68.1226 211.115C67.2923 212.588 67.8257 214.455 69.0637 215.217C70.3268 215.999 72.058 215.499 73.301 214.788C74.5592 214.066 76.4765 211.498 76.9748 210.812C77.3421 211.064 77.7095 211.317 78.0769 211.569C79.8433 212.765 81.6147 213.95 83.3207 215.176C83.9196 215.61 84.4983 216.059 85.0771 216.508C84.6543 216.306 84.297 216.145 84.2417 216.125C82.4954 215.565 78.8217 215.721 77.6642 217.769C76.8338 219.248 77.3673 221.109 78.6053 221.871C79.8684 222.648 81.5996 222.149 82.8426 221.442C84.0454 220.756 85.8269 218.405 86.4258 217.593C87.0045 218.077 87.5883 218.556 88.1318 219.056C88.4941 219.409 88.8715 219.717 89.2188 220.095C89.5711 220.459 89.9183 220.822 90.2655 221.18C90.9097 221.902 91.579 222.638 92.193 223.36C92.6207 223.859 93.0233 224.343 93.431 224.828C92.8371 224.389 91.6595 223.561 91.5539 223.506C89.9082 222.633 86.2748 222.124 84.8758 223.95C83.8693 225.267 84.1611 227.214 85.2783 228.193C86.4207 229.197 88.1922 229.015 89.5006 228.531C90.9449 228.001 93.4008 225.474 93.7078 225.156C94.3771 225.963 95.0212 226.755 95.6201 227.517L95.6 227.532Z" fill="white"/>
<path opacity="0.5" d="M57.9419 198.572C59.5171 198.219 62.4963 195.737 62.4963 195.732C62.5265 195.706 60.589 193.936 60.4581 193.84C58.9132 192.745 55.3653 191.736 53.8052 193.365C52.6829 194.536 52.7836 196.519 53.7951 197.654C54.8318 198.809 56.5982 198.875 57.9419 198.572Z" fill="white"/>
</g>
</g>
<path d="M116 230.714L87 230.214L93.5 254.714H108.5L116 230.714Z" fill="#263238"/>
<line x1="398" y1="255" x2="40" y2="255" stroke="#C11153" stroke-width="2"/>
<defs>
<linearGradient id="paint0_linear_2_528" x1="124.349" y1="248.377" x2="135.551" y2="248.377" gradientUnits="userSpaceOnUse">
<stop stop-color="#09005D"/>
<stop offset="1" stop-color="#1A0F91"/>
</linearGradient>
<linearGradient id="paint1_linear_2_528" x1="127.464" y1="235.58" x2="125.31" y2="254.317" gradientUnits="userSpaceOnUse">
<stop stop-color="#FEBBBA"/>
<stop offset="1" stop-color="#FF928E"/>
</linearGradient>
<linearGradient id="paint2_linear_2_528" x1="141.407" y1="248.663" x2="157.533" y2="248.663" gradientUnits="userSpaceOnUse">
<stop stop-color="#09005D"/>
<stop offset="1" stop-color="#1A0F91"/>
</linearGradient>
<linearGradient id="paint3_linear_2_528" x1="144.615" y1="237.572" x2="143.649" y2="256.41" gradientUnits="userSpaceOnUse">
<stop stop-color="#FEBBBA"/>
<stop offset="1" stop-color="#FF928E"/>
</linearGradient>
<linearGradient id="paint4_linear_2_528" x1="141.647" y1="253.259" x2="119.351" y2="147.312" gradientUnits="userSpaceOnUse">
<stop stop-color="#09005D"/>
<stop offset="1" stop-color="#1A0F91"/>
</linearGradient>
<linearGradient id="paint5_linear_2_528" x1="136.001" y1="126.357" x2="141.001" y2="112.751" gradientUnits="userSpaceOnUse">
<stop stop-color="#FEBBBA"/>
<stop offset="1" stop-color="#FF928E"/>
</linearGradient>
<linearGradient id="paint6_linear_2_528" x1="148.216" y1="105.929" x2="118.526" y2="129.494" gradientUnits="userSpaceOnUse">
<stop stop-color="#FEBBBA"/>
<stop offset="1" stop-color="#FF928E"/>
</linearGradient>
<linearGradient id="paint7_linear_2_528" x1="136.785" y1="98.144" x2="150.415" y2="115.632" gradientUnits="userSpaceOnUse">
<stop stop-color="#09005D"/>
<stop offset="1" stop-color="#1A0F91"/>
</linearGradient>
<linearGradient id="paint8_linear_2_528" x1="145.235" y1="104.633" x2="130.626" y2="115.772" gradientUnits="userSpaceOnUse">
<stop stop-color="#FEBBBA"/>
<stop offset="1" stop-color="#FF928E"/>
</linearGradient>
<linearGradient id="paint9_linear_2_528" x1="179.724" y1="112.026" x2="148.779" y2="138.663" gradientUnits="userSpaceOnUse">
<stop stop-color="#FEBBBA"/>
<stop offset="1" stop-color="#FF928E"/>
</linearGradient>
<linearGradient id="paint10_linear_2_528" x1="180.367" y1="114.518" x2="150.245" y2="140.448" gradientUnits="userSpaceOnUse">
<stop stop-color="#FEBBBA"/>
<stop offset="1" stop-color="#FF928E"/>
</linearGradient>
<linearGradient id="paint11_linear_2_528" x1="180.866" y1="113.351" x2="149.921" y2="139.99" gradientUnits="userSpaceOnUse">
<stop stop-color="#FEBBBA"/>
<stop offset="1" stop-color="#FF928E"/>
</linearGradient>
<linearGradient id="paint12_linear_2_528" x1="150.409" y1="110.715" x2="272.763" y2="119.837" gradientUnits="userSpaceOnUse">
<stop stop-color="#FF9085"/>
<stop offset="1" stop-color="#FB6FBB"/>
</linearGradient>
<linearGradient id="paint13_linear_2_528" x1="161.349" y1="135.315" x2="146.582" y2="208.75" gradientUnits="userSpaceOnUse">
<stop stop-color="#FEBBBA"/>
<stop offset="1" stop-color="#FF928E"/>
</linearGradient>
<clipPath id="clip0_2_528">
<rect width="37.5397" height="53.2381" fill="white" transform="matrix(-1 0 0 1 366 185.714)"/>
</clipPath>
<clipPath id="clip1_2_528">
<rect width="55" height="78" fill="white" transform="translate(53 154.714)"/>
</clipPath>
</defs>
</svg>
