<svg width="50" height="64" viewBox="0 0 50 64" fill="none" xmlns="http://www.w3.org/2000/svg">
<path d="M49.0722 5.21729H2.87982V16.32H49.0722V5.21729Z" fill="#BC004B"/>
<path d="M49.0722 17.464H2.87982V63.4468H49.0722V17.464Z" fill="#BC004B"/>
<path d="M14.6331 52.846H26.3864V59.3164H1.42596C1.52201 59.1156 1.57004 58.941 1.67482 58.8012C3.72685 56.0507 5.79196 53.3088 7.83525 50.5495C11.0486 46.2053 14.2271 41.835 17.4492 37.4951C20.2172 33.7666 17.9906 28.9116 13.9564 28.0122C11.4765 27.4577 8.8962 28.5492 7.47725 30.8152C6.19364 32.8715 6.39011 35.6876 7.96187 37.5999C8.12341 37.7964 8.32425 37.9667 8.4465 38.185C8.52509 38.3247 8.57748 38.5954 8.49889 38.6958C7.23275 40.2719 5.94478 41.8306 4.61315 43.4547C2.9366 41.9921 1.60933 40.4422 0.897675 38.4469C-0.530009 34.4302 -0.351009 30.527 2.13325 26.9731C6.24166 21.0964 13.498 19.7954 19.0734 23.1048C25.356 26.8377 27.1417 35.3034 22.8238 41.2062C20.1954 44.7995 17.5496 48.3752 14.9126 51.9641C14.7685 52.1606 14.6506 52.3789 14.5196 52.5841L14.6288 52.846H14.6331Z" fill="#E9D800"/>
<path d="M46.064 21.3061V59.0938H39.6722V33.9675C38.9518 34.3779 34.2496 41.6298 33.8698 42.8523H38.1965V49.2267C37.4805 49.4755 23.0421 49.5236 21.9724 49.2703C22.0641 49.0695 22.134 48.873 22.2431 48.7027C27.8709 39.8136 33.5074 30.9244 39.1221 22.0264C39.4452 21.5156 39.7857 21.2755 40.4144 21.2886C42.2525 21.3323 44.095 21.3017 46.064 21.3017V21.3061Z" fill="#E9D800"/>
<path d="M13.463 14.8705C13.4281 14.8879 13.3975 14.8879 13.3626 14.8879C13.1792 14.8879 12.9959 14.7701 12.9435 14.5692L12.293 11.9671H10.2409L9.5904 14.5692C9.54237 14.8006 9.30661 14.936 9.08831 14.8705C8.85691 14.8225 8.72156 14.6042 8.76959 14.3684L10.4374 7.69714C10.4854 7.51376 10.6557 7.37842 10.8565 7.37842H11.6904C11.8738 7.37842 12.0397 7.51376 12.0921 7.69714L13.7599 14.3684C13.808 14.5998 13.677 14.8181 13.4587 14.8705H13.463ZM12.0965 11.1332L11.363 8.21232H11.1796L10.4636 11.1332H12.0965Z" fill="#E9D800"/>
<path d="M9.20623 14.9841C9.1582 14.9841 9.11017 14.9754 9.06214 14.9623C8.78709 14.9055 8.61682 14.6392 8.67795 14.3511L10.3458 7.67544C10.4069 7.44404 10.6164 7.28687 10.8566 7.28687H11.6905C11.9132 7.28687 12.1227 7.44841 12.1838 7.67544L13.8517 14.3511C13.9128 14.6305 13.7556 14.8968 13.4893 14.9667C13.4413 14.9885 13.3932 14.9885 13.3583 14.9885C13.1138 14.9885 12.9042 14.827 12.8475 14.5999L12.2144 12.072H10.3108L9.67775 14.5999C9.62973 14.827 9.43327 14.9885 9.1975 14.9885L9.20623 14.9841ZM10.8609 7.47897C10.7081 7.47897 10.5771 7.57939 10.5379 7.72347L8.87005 14.3947C8.83076 14.5781 8.93554 14.7396 9.11455 14.7789C9.14947 14.7877 9.18003 14.792 9.20623 14.792C9.35031 14.792 9.46818 14.6916 9.49874 14.5519L10.1667 11.8755H12.3672L13.0352 14.5519C13.0789 14.7178 13.2317 14.7964 13.3583 14.7964C13.3845 14.7964 13.402 14.7964 13.4151 14.7877L13.4369 14.7789C13.6072 14.7396 13.7032 14.5737 13.6639 14.3904L11.9961 7.72347C11.9568 7.58375 11.8258 7.47897 11.6905 7.47897H10.8566H10.8609ZM12.2188 11.2337H10.3414L11.1054 8.12514H11.4373L12.2188 11.2337ZM10.5815 11.0416H11.9699L11.2845 8.31288H11.2495L10.5771 11.0416H10.5815Z" fill="#E9D800"/>
<path d="M19.6148 12.8537C19.5318 13.5042 19.2131 14.0369 18.7154 14.4036C18.2657 14.7223 17.7156 14.8882 17.0825 14.8882C16.4145 14.8882 15.7989 14.6045 15.3317 14.0718C14.882 13.5566 14.6332 12.8712 14.6332 12.1377V10.138C14.6332 9.42201 14.882 8.73655 15.3317 8.22136C15.7989 7.68871 16.4145 7.38745 17.0825 7.38745C17.7505 7.38745 18.2657 7.55336 18.7154 7.88954C19.2175 8.23882 19.5318 8.77147 19.6148 9.42201C19.6323 9.65341 19.4794 9.85424 19.248 9.88917C19.0167 9.9241 18.8158 9.75383 18.7809 9.52243C18.663 8.57064 17.8291 8.22136 17.0781 8.22136C16.1787 8.22136 15.4584 9.09019 15.4584 10.138V12.1377C15.4584 13.2073 16.1744 14.0543 17.0781 14.0543C17.8291 14.0543 18.663 13.7225 18.7809 12.7533C18.8158 12.5219 19.0123 12.3691 19.248 12.3865C19.4794 12.4215 19.6323 12.6354 19.6148 12.8537Z" fill="#E9D800"/>
<path d="M17.0825 14.9842C16.3883 14.9842 15.7378 14.683 15.2575 14.1329C14.7904 13.5958 14.5328 12.8885 14.5328 12.1332V10.1336C14.5328 9.39137 14.7904 8.68845 15.2575 8.15143C15.7465 7.59258 16.3927 7.28259 17.0825 7.28259C17.7724 7.28259 18.3094 7.45723 18.7722 7.80215C19.3005 8.16889 19.6235 8.72337 19.7109 9.40011C19.7327 9.69263 19.545 9.93276 19.2612 9.97205C18.973 10.0113 18.7285 9.81051 18.6849 9.52235C18.5757 8.62296 17.7811 8.30424 17.0782 8.30424C16.2399 8.30424 15.5544 9.12068 15.5544 10.1249V12.1245C15.5544 13.1461 16.2224 13.9451 17.0782 13.9451C17.4187 13.9451 18.5495 13.8578 18.6849 12.727C18.7241 12.4476 18.9599 12.2555 19.2524 12.2773C19.5319 12.3166 19.7283 12.5655 19.7065 12.8449C19.6192 13.5172 19.2961 14.0761 18.7678 14.4647C18.2919 14.7965 17.7243 14.9668 17.0782 14.9668L17.0825 14.9842ZM17.0825 7.47906C16.4538 7.47906 15.8557 7.76285 15.4016 8.28241C14.965 8.7845 14.7249 9.44376 14.7249 10.138V12.1376C14.7249 12.8449 14.965 13.5085 15.4016 14.0106C15.8426 14.5171 16.4407 14.7965 17.0825 14.7965C17.7243 14.7965 18.2221 14.6393 18.663 14.3293C19.1477 13.9757 19.4445 13.4605 19.5231 12.8449C19.5362 12.6921 19.4314 12.5131 19.2393 12.4825H19.2175C19.0429 12.4825 18.9032 12.6004 18.8813 12.7663C18.7591 13.7836 17.8728 14.1503 17.0869 14.1503C16.1264 14.1503 15.3754 13.264 15.3754 12.1376V10.138C15.3754 9.02899 16.1438 8.12523 17.0869 8.12523C17.8728 8.12523 18.7591 8.48761 18.8813 9.50926C18.9075 9.69263 19.0603 9.81924 19.2393 9.79305C19.4183 9.76685 19.5362 9.61404 19.5231 9.4263C19.4445 8.81069 19.1477 8.29987 18.663 7.96369C18.2308 7.6406 17.6981 7.47906 17.0825 7.47906Z" fill="#E9D800"/>
<path d="M25.4521 12.8537C25.3692 13.5042 25.0505 14.0369 24.5527 14.4036C24.103 14.7223 23.5529 14.8882 22.9199 14.8882C22.2519 14.8882 21.6362 14.6045 21.1691 14.0718C20.7194 13.5566 20.4705 12.8712 20.4705 12.1377V10.138C20.4705 9.42201 20.7194 8.73655 21.1691 8.22136C21.6362 7.68871 22.2519 7.38745 22.9199 7.38745C23.5879 7.38745 24.103 7.55336 24.5527 7.88954C25.0548 8.23882 25.3692 8.77147 25.4521 9.42201C25.4696 9.65341 25.3168 9.85424 25.0854 9.88917C24.854 9.9241 24.6532 9.75383 24.6182 9.52243C24.5003 8.57064 23.6664 8.22136 22.9155 8.22136C22.0161 8.22136 21.2957 9.09019 21.2957 10.138V12.1377C21.2957 13.2073 22.0117 14.0543 22.9155 14.0543C23.6664 14.0543 24.5003 13.7225 24.6182 12.7533C24.6532 12.5219 24.8496 12.3691 25.0854 12.3865C25.3168 12.4215 25.4696 12.6354 25.4521 12.8537Z" fill="#E9D800"/>
<path d="M22.9199 14.9842C22.2257 14.9842 21.5751 14.683 21.0949 14.1329C20.6277 13.5958 20.3701 12.8885 20.3701 12.1332V10.1336C20.3701 9.39137 20.6277 8.68845 21.0949 8.15143C21.5839 7.59258 22.23 7.28259 22.9199 7.28259C23.6097 7.28259 24.1467 7.45723 24.6095 7.80215C25.1378 8.16889 25.4609 8.72337 25.5482 9.40011C25.57 9.69263 25.3823 9.93276 25.0985 9.97205C24.8147 10.0113 24.5658 9.81051 24.5222 9.52235C24.413 8.62296 23.6184 8.30424 22.9155 8.30424C22.0772 8.30424 21.3918 9.12068 21.3918 10.1249V12.1245C21.3918 13.1461 22.0598 13.9451 22.9155 13.9451C23.256 13.9451 24.3868 13.8578 24.5222 12.727C24.5615 12.4476 24.7972 12.2555 25.0898 12.2773C25.3692 12.3166 25.5657 12.5655 25.5438 12.8449C25.4565 13.5172 25.1334 14.0761 24.6051 14.4647C24.1292 14.7965 23.5617 14.9668 22.9155 14.9668L22.9199 14.9842ZM22.9199 7.47906C22.2912 7.47906 21.693 7.76285 21.2389 8.28241C20.8023 8.7845 20.5622 9.44376 20.5622 10.138V12.1376C20.5622 12.8449 20.8023 13.5085 21.2389 14.0106C21.6799 14.5171 22.2781 14.7965 22.9199 14.7965C23.5617 14.7965 24.0594 14.6393 24.5004 14.3293C24.985 13.9757 25.2819 13.4605 25.3605 12.8449C25.3736 12.6921 25.2688 12.5131 25.0767 12.4825H25.0548C24.8802 12.4825 24.7405 12.6004 24.7187 12.7663C24.5964 13.7836 23.7101 14.1503 22.9242 14.1503C21.9637 14.1503 21.2128 13.264 21.2128 12.1376V10.138C21.2128 9.02899 21.9812 8.12523 22.9242 8.12523C23.7101 8.12523 24.5964 8.48761 24.7187 9.50926C24.7449 9.69263 24.8977 9.81924 25.0767 9.79305C25.2557 9.76685 25.3736 9.61404 25.3605 9.4263C25.2819 8.81069 24.985 8.29987 24.5004 7.96369C24.0681 7.6406 23.5355 7.47906 22.9199 7.47906Z" fill="#E9D800"/>
<path d="M31.2938 14.4733C31.2938 14.7047 31.1105 14.8925 30.8747 14.8925H26.7051C26.4737 14.8925 26.286 14.7091 26.286 14.4733V7.80207C26.286 7.57067 26.4694 7.38293 26.7051 7.38293H30.8747C31.1061 7.38293 31.2938 7.56631 31.2938 7.80207C31.2938 8.03784 31.1105 8.22121 30.8747 8.22121H27.1199V10.7229H30.0408C30.2722 10.7229 30.4599 10.9063 30.4599 11.1421C30.4599 11.3778 30.2765 11.5612 30.0408 11.5612H27.1199V14.0629H30.8747C31.1061 14.0629 31.2938 14.2463 31.2938 14.4821V14.4733Z" fill="#E9D800"/>
<path d="M30.8747 14.9842H26.7052C26.417 14.9842 26.1943 14.7571 26.1943 14.4733V7.80208C26.1943 7.51393 26.4214 7.29126 26.7052 7.29126H30.8747C31.1629 7.29126 31.3855 7.51829 31.3855 7.80208C31.3855 8.08587 31.1585 8.31291 30.8747 8.31291H27.216V10.6225H30.0408C30.3289 10.6225 30.5516 10.8496 30.5516 11.1333C30.5516 11.4171 30.3246 11.6442 30.0408 11.6442H27.216V13.9538H30.8747C31.1629 13.9538 31.3855 14.1808 31.3855 14.4646C31.3855 14.7484 31.1585 14.9754 30.8747 14.9754V14.9842ZM26.7052 7.479C26.5261 7.479 26.3821 7.61871 26.3821 7.80208V14.4733C26.3821 14.6523 26.5218 14.7964 26.7052 14.7964H30.8747C31.0537 14.7964 31.1978 14.6567 31.1978 14.4733C31.1978 14.29 31.0581 14.1503 30.8747 14.1503H27.0282V11.4564H30.0408C30.2198 11.4564 30.3639 11.3167 30.3639 11.1333C30.3639 10.95 30.2242 10.8103 30.0408 10.8103H27.0282V8.11643H30.8747C31.0537 8.11643 31.1978 7.97672 31.1978 7.79335C31.1978 7.60998 31.0581 7.47027 30.8747 7.47027H26.7052V7.479Z" fill="#E9D800"/>
<path d="M37.1312 12.3515V13.0501C37.1312 13.5653 36.8998 14.0325 36.4632 14.3861C36.0615 14.7048 35.5288 14.8882 34.9787 14.8882H34.2103C33.0577 14.8882 32.1234 13.9539 32.1234 12.8012C32.1234 12.5698 32.3067 12.3821 32.5425 12.3821C32.7782 12.3821 32.9616 12.5655 32.9616 12.8012C32.9616 13.4998 33.5117 14.0543 34.2147 14.0543H34.9831C35.3498 14.0543 35.6817 13.9364 35.9349 13.7356C36.1663 13.5522 36.3016 13.3033 36.3016 13.0501V12.3515C36.3016 12.1027 36.1663 11.8495 35.9349 11.6661C35.686 11.4652 35.3498 11.3474 34.9831 11.3474H34.2845C33.7344 11.3474 33.2018 11.1815 32.8175 10.8977C32.3853 10.5789 32.1321 10.1467 32.1321 9.67955V9.04648C32.1321 8.57931 32.3809 8.14708 32.8175 7.82836C33.2018 7.54457 33.7344 7.37866 34.2845 7.37866H34.8521C36.0047 7.37866 36.9391 8.23003 36.9391 9.26478C36.9391 9.49617 36.7557 9.68391 36.5199 9.68391C36.2842 9.68391 36.1008 9.50054 36.1008 9.26478C36.1008 8.6972 35.5332 8.21257 34.8477 8.21257H34.2802C33.896 8.21257 33.5467 8.33045 33.2978 8.49636C33.1625 8.59678 32.966 8.78015 32.966 9.04648V9.67955C32.966 9.94587 33.1668 10.1292 33.2978 10.2297C33.5467 10.3956 33.9003 10.5135 34.2802 10.5135H35.0791C35.5943 10.5309 36.0964 10.7143 36.4632 11.0155C36.8954 11.3648 37.1312 11.832 37.1312 12.3515Z" fill="#E9D800"/>
<path d="M34.9787 14.9842H34.2103C33.0097 14.9842 32.0317 14.0062 32.0317 12.8056C32.0317 12.5174 32.2587 12.2947 32.5425 12.2947C32.8263 12.2947 33.0533 12.5218 33.0533 12.8056C33.0533 13.4517 33.5598 13.9625 34.2103 13.9625H34.9787C35.3149 13.9625 35.6293 13.8578 35.8694 13.6657C36.079 13.4997 36.2012 13.2771 36.2012 13.0544V12.3559C36.2012 12.1332 36.079 11.9105 35.8694 11.749C35.6293 11.5569 35.3149 11.4521 34.9787 11.4521H34.2802C33.7126 11.4521 33.1581 11.2818 32.7564 10.9849C32.2893 10.6444 32.0317 10.186 32.0317 9.69259V9.05952C32.0317 8.56616 32.2893 8.10337 32.7564 7.76282C33.1581 7.46593 33.717 7.29565 34.2802 7.29565H34.8478C36.0484 7.29565 37.0264 8.18195 37.0264 9.27782C37.0264 9.56598 36.7994 9.78864 36.5156 9.78864C36.2318 9.78864 36.0047 9.56161 36.0047 9.27782C36.0047 8.75827 35.4765 8.32167 34.8478 8.32167H34.2802C33.944 8.32167 33.6034 8.41772 33.3502 8.58799C33.1537 8.73207 33.0577 8.88925 33.0577 9.05952V9.69259C33.0577 9.86287 33.1537 10.0157 33.3546 10.1685C33.6034 10.3344 33.944 10.4348 34.2802 10.4348H35.0792C35.6118 10.4523 36.1401 10.6444 36.5243 10.9587C36.9784 11.3255 37.2272 11.8232 37.2272 12.369V13.0675C37.2272 13.6089 36.9784 14.111 36.5243 14.4777C36.1052 14.8095 35.5419 14.9973 34.9787 14.9973V14.9842ZM32.5425 12.4825C32.3635 12.4825 32.2194 12.6222 32.2194 12.8056C32.2194 13.9014 33.1101 14.7965 34.2103 14.7965H34.9787C35.4983 14.7965 36.0178 14.6218 36.4021 14.3162C36.8125 13.9844 37.0351 13.5478 37.0351 13.0588V12.3602C37.0351 11.8712 36.8168 11.4346 36.4021 11.0984C36.0484 10.8103 35.5638 10.6356 35.0748 10.6182H34.2758C33.9003 10.6182 33.5249 10.509 33.2367 10.3169C32.9835 10.1292 32.8612 9.91962 32.8612 9.68823V9.05515C32.8612 8.82376 32.9878 8.61419 33.2323 8.42645C33.5205 8.23435 33.9003 8.1252 34.2714 8.1252H34.839C35.5681 8.1252 36.1838 8.64912 36.1838 9.27346C36.1838 9.45246 36.3235 9.59654 36.5068 9.59654C36.6902 9.59654 36.8299 9.45683 36.8299 9.27346C36.8299 8.28674 35.9392 7.48339 34.839 7.48339H34.2714C33.7475 7.48339 33.2323 7.64057 32.8612 7.91563C32.4464 8.22125 32.215 8.62292 32.215 9.05515V9.68823C32.215 10.1205 32.4421 10.5265 32.8612 10.8278C33.2323 11.1028 33.7475 11.26 34.2714 11.26H34.97C35.3498 11.26 35.7079 11.3779 35.9785 11.5962C36.2361 11.797 36.3802 12.0721 36.3802 12.3559V13.0544C36.3802 13.3338 36.2318 13.6133 35.9785 13.8141C35.7079 14.0324 35.3498 14.1503 34.97 14.1503H34.2016C33.4463 14.1503 32.8568 13.5609 32.8568 12.8056C32.8568 12.6265 32.7171 12.4825 32.5338 12.4825H32.5425Z" fill="#E9D800"/>
<path d="M42.9686 12.3515V13.0501C42.9686 13.5653 42.7372 14.0325 42.3006 14.3861C41.8989 14.7048 41.3662 14.8882 40.8161 14.8882H40.0477C38.8951 14.8882 37.9608 13.9539 37.9608 12.8012C37.9608 12.5698 38.1441 12.3821 38.3799 12.3821C38.6157 12.3821 38.799 12.5655 38.799 12.8012C38.799 13.4998 39.3491 14.0543 40.0521 14.0543H40.8205C41.1872 14.0543 41.5191 13.9364 41.7723 13.7356C42.0037 13.5522 42.139 13.3033 42.139 13.0501V12.3515C42.139 12.1027 42.0037 11.8495 41.7723 11.6661C41.5234 11.4652 41.1872 11.3474 40.8205 11.3474H40.1219C39.5718 11.3474 39.0392 11.1815 38.6549 10.8977C38.2227 10.5789 37.9695 10.1467 37.9695 9.67955V9.04648C37.9695 8.57931 38.2183 8.14708 38.6549 7.82836C39.0392 7.54457 39.5718 7.37866 40.1219 7.37866H40.6895C41.8421 7.37866 42.7765 8.23003 42.7765 9.26478C42.7765 9.49617 42.5931 9.68391 42.3573 9.68391C42.1216 9.68391 41.9382 9.50054 41.9382 9.26478C41.9382 8.6972 41.3706 8.21257 40.6852 8.21257H40.1176C39.7334 8.21257 39.3841 8.33045 39.1352 8.49636C38.9999 8.59678 38.8034 8.78015 38.8034 9.04648V9.67955C38.8034 9.94587 39.0042 10.1292 39.1352 10.2297C39.3841 10.3956 39.7377 10.5135 40.1176 10.5135H40.9165C41.4317 10.5309 41.9338 10.7143 42.3006 11.0155C42.7328 11.3648 42.9686 11.832 42.9686 12.3515Z" fill="#E9D800"/>
<path d="M40.8161 14.9842H40.0477C38.8471 14.9842 37.8691 14.0062 37.8691 12.8056C37.8691 12.5174 38.0961 12.2947 38.3799 12.2947C38.6637 12.2947 38.8907 12.5218 38.8907 12.8056C38.8907 13.4517 39.3972 13.9625 40.0477 13.9625H40.8161C41.1523 13.9625 41.4667 13.8578 41.7068 13.6657C41.9164 13.4997 42.0386 13.2771 42.0386 13.0544V12.3559C42.0386 12.1332 41.9164 11.9105 41.7068 11.749C41.4667 11.5569 41.1523 11.4521 40.8161 11.4521H40.1176C39.55 11.4521 38.9955 11.2818 38.5938 10.9849C38.1267 10.6444 37.8691 10.186 37.8691 9.69259V9.05952C37.8691 8.56616 38.1267 8.10337 38.5938 7.76282C38.9955 7.46593 39.5544 7.29565 40.1176 7.29565H40.6852C41.8858 7.29565 42.8638 8.18195 42.8638 9.27782C42.8638 9.56598 42.6368 9.78864 42.353 9.78864C42.0692 9.78864 41.8421 9.56161 41.8421 9.27782C41.8421 8.75827 41.3139 8.32167 40.6852 8.32167H40.1176C39.7814 8.32167 39.4408 8.41772 39.1876 8.58799C38.9911 8.73207 38.8951 8.88925 38.8951 9.05952V9.69259C38.8951 9.86287 38.9911 10.0157 39.192 10.1685C39.4408 10.3344 39.7814 10.4348 40.1176 10.4348H40.9166C41.4492 10.4523 41.9775 10.6444 42.3617 10.9587C42.8158 11.3255 43.0646 11.8232 43.0646 12.369V13.0675C43.0646 13.6089 42.8158 14.111 42.3617 14.4777C41.9426 14.8095 41.3793 14.9973 40.8161 14.9973V14.9842ZM38.3799 12.4825C38.2009 12.4825 38.0568 12.6222 38.0568 12.8056C38.0568 13.9014 38.9475 14.7965 40.0477 14.7965H40.8161C41.3357 14.7965 41.8552 14.6218 42.2395 14.3162C42.6499 13.9844 42.8725 13.5478 42.8725 13.0588V12.3602C42.8725 11.8712 42.6542 11.4346 42.2395 11.0984C41.8858 10.8103 41.4012 10.6356 40.9122 10.6182H40.1132C39.7377 10.6182 39.3623 10.509 39.0741 10.3169C38.8209 10.1292 38.6986 9.91962 38.6986 9.68823V9.05515C38.6986 8.82376 38.8252 8.61419 39.0697 8.42645C39.3579 8.23435 39.7377 8.1252 40.1088 8.1252H40.6764C41.4055 8.1252 42.0212 8.64912 42.0212 9.27346C42.0212 9.45246 42.1609 9.59654 42.3442 9.59654C42.5276 9.59654 42.6673 9.45683 42.6673 9.27346C42.6673 8.28674 41.7767 7.48339 40.6764 7.48339H40.1088C39.5849 7.48339 39.0697 7.64057 38.6986 7.91563C38.2838 8.22125 38.0525 8.62292 38.0525 9.05515V9.68823C38.0525 10.1205 38.2795 10.5265 38.6986 10.8278C39.0697 11.1028 39.5849 11.26 40.1088 11.26H40.8074C41.1872 11.26 41.5453 11.3779 41.816 11.5962C42.0735 11.797 42.2176 12.0721 42.2176 12.3559V13.0544C42.2176 13.3338 42.0692 13.6133 41.816 13.8141C41.5453 14.0324 41.1872 14.1503 40.8074 14.1503H40.039C39.2837 14.1503 38.6943 13.5609 38.6943 12.8056C38.6943 12.6265 38.5545 12.4825 38.3712 12.4825H38.3799Z" fill="#E9D800"/>
<path d="M25.164 7.37855L21.645 3.68927L18.1304 0H25.164H32.1976L28.683 3.68927L25.164 7.37855Z" fill="#E9D800"/>
</svg>
